<?xml version="1.0" encoding="utf-8" standalone="no"?>
<!DOCTYPE svg PUBLIC "-//W3C//DTD SVG 1.1//EN"
  "http://www.w3.org/Graphics/SVG/1.1/DTD/svg11.dtd">
<svg xmlns:xlink="http://www.w3.org/1999/xlink" width="416.16pt" height="258.336pt" viewBox="0 0 416.16 258.336" xmlns="http://www.w3.org/2000/svg" version="1.1">
 <metadata>
  <rdf:RDF xmlns:dc="http://purl.org/dc/elements/1.1/" xmlns:cc="http://creativecommons.org/ns#" xmlns:rdf="http://www.w3.org/1999/02/22-rdf-syntax-ns#">
   <cc:Work>
    <dc:type rdf:resource="http://purl.org/dc/dcmitype/StillImage"/>
    <dc:date>2026-07-09T09:58:24.626126</dc:date>
    <dc:format>image/svg+xml</dc:format>
    <dc:creator>
     <cc:Agent>
      <dc:title>Matplotlib v3.11.0, https://matplotlib.org/</dc:title>
     </cc:Agent>
    </dc:creator>
   </cc:Work>
  </rdf:RDF>
 </metadata>
 <defs>
  <style type="text/css">*{stroke-linejoin: round; stroke-linecap: butt}</style>
 </defs>
 <g id="figure_1">
  <g id="patch_1">
   <path d="M 0 258.336 
L 416.16 258.336 
L 416.16 0 
L 0 0 
z
" style="fill: #ffffff"/>
  </g>
  <g id="axes_1">
   <g id="patch_2">
    <path d="M 73.079518 150.30912 
Q 78.511838 150.30912 82.602517 150.30912 
" clip-path="url(#pf5c7d87af2)" style="fill: none; stroke: #94a3b8; stroke-width: 1.2; stroke-linecap: round"/>
    <path d="M 79.002517 148.50912 
L 82.602517 150.30912 
L 79.002517 152.10912 
z
" clip-path="url(#pf5c7d87af2)" style="fill: #94a3b8; stroke: #94a3b8; stroke-width: 1.2; stroke-linecap: round"/>
   </g>
   <g id="patch_3">
    <path d="M 138.968158 150.30912 
Q 144.400478 150.30912 148.491157 150.30912 
" clip-path="url(#pf5c7d87af2)" style="fill: none; stroke: #94a3b8; stroke-width: 1.2; stroke-linecap: round"/>
    <path d="M 144.891157 148.50912 
L 148.491157 150.30912 
L 144.891157 152.10912 
z
" clip-path="url(#pf5c7d87af2)" style="fill: #94a3b8; stroke: #94a3b8; stroke-width: 1.2; stroke-linecap: round"/>
   </g>
   <g id="patch_4">
    <path d="M 204.856798 150.30912 
Q 210.289118 150.30912 214.379797 150.30912 
" clip-path="url(#pf5c7d87af2)" style="fill: none; stroke: #94a3b8; stroke-width: 1.2; stroke-linecap: round"/>
    <path d="M 210.779797 148.50912 
L 214.379797 150.30912 
L 210.779797 152.10912 
z
" clip-path="url(#pf5c7d87af2)" style="fill: #94a3b8; stroke: #94a3b8; stroke-width: 1.2; stroke-linecap: round"/>
   </g>
   <g id="patch_5">
    <path d="M 270.745438 150.30912 
Q 276.177758 150.30912 280.268437 150.30912 
" clip-path="url(#pf5c7d87af2)" style="fill: none; stroke: #94a3b8; stroke-width: 1.2; stroke-linecap: round"/>
    <path d="M 276.668437 148.50912 
L 280.268437 150.30912 
L 276.668437 152.10912 
z
" clip-path="url(#pf5c7d87af2)" style="fill: #94a3b8; stroke: #94a3b8; stroke-width: 1.2; stroke-linecap: round"/>
   </g>
   <g id="patch_6">
    <path d="M 336.634078 150.30912 
Q 342.066398 150.30912 346.157077 150.30912 
" clip-path="url(#pf5c7d87af2)" style="fill: none; stroke: #94a3b8; stroke-width: 1.2; stroke-linecap: round"/>
    <path d="M 342.557077 148.50912 
L 346.157077 150.30912 
L 342.557077 152.10912 
z
" clip-path="url(#pf5c7d87af2)" style="fill: #94a3b8; stroke: #94a3b8; stroke-width: 1.2; stroke-linecap: round"/>
   </g>
   <g id="patch_7">
    <path d="M 307.984357 168.775656 
Q 281.86538 183.337807 253.352655 187.296137 
" clip-path="url(#pf5c7d87af2)" style="fill: none; stroke: #2b6fa0; stroke-linecap: round"/>
    <path d="M 257.165972 188.58401 
L 253.352655 187.296137 
L 256.670943 185.018207 
z
" clip-path="url(#pf5c7d87af2)" style="fill: #2b6fa0; stroke: #2b6fa0; stroke-linecap: round"/>
   </g>
   <g id="patch_8">
    <path d="M 248.995762 186.1685 
Q 183.771828 107.298409 84.580671 87.095216 
" clip-path="url(#pf5c7d87af2)" style="fill: none; stroke: #2b6fa0; stroke-linecap: round"/>
    <path d="M 87.748997 89.577496 
L 84.580671 87.095216 
L 88.46749 86.049924 
z
" clip-path="url(#pf5c7d87af2)" style="fill: #2b6fa0; stroke: #2b6fa0; stroke-linecap: round"/>
   </g>
   <g id="patch_9">
    <path d="M 208.08 185.713799 
Q 208.08 137.097385 208.08 89.599006 
" clip-path="url(#pf5c7d87af2)" style="fill: none; stroke: #2f855a; stroke-linecap: round"/>
    <path d="M 206.28 93.199006 
L 208.08 89.599006 
L 209.88 93.199006 
z
" clip-path="url(#pf5c7d87af2)" style="fill: #2f855a; stroke: #2f855a; stroke-linecap: round"/>
   </g>
   <g id="patch_10">
    <path d="M 262.870074 185.788333 
Q 280.79816 124.468429 332.078659 88.271287 
" clip-path="url(#pf5c7d87af2)" style="fill: none; stroke: #b7791f; stroke-linecap: round"/>
    <path d="M 328.099538 88.87676 
L 332.078659 88.271287 
L 330.175564 91.817867 
z
" clip-path="url(#pf5c7d87af2)" style="fill: #b7791f; stroke: #b7791f; stroke-linecap: round"/>
   </g>
   <g id="patch_11">
    <path d="M 30.90384 243.0048 
L 385.25616 243.0048 
Q 387.66672 243.0048 387.66672 240.56544 
L 387.66672 227.55552 
Q 387.66672 225.11616 385.25616 225.11616 
L 30.90384 225.11616 
Q 28.49328 225.11616 28.49328 227.55552 
L 28.49328 240.56544 
Q 28.49328 243.0048 30.90384 243.0048 
z
" clip-path="url(#pf5c7d87af2)" style="fill: #f8fafc; stroke: #cbd5e1; stroke-width: 0.8; stroke-linejoin: miter"/>
   </g>
   <g id="patch_12">
    <path d="M 30.70296 87.29232 
L 130.33944 87.29232 
Q 132.54912 87.29232 132.54912 85.05624 
L 132.54912 57.81672 
Q 132.54912 55.58064 130.33944 55.58064 
L 30.70296 55.58064 
Q 28.49328 55.58064 28.49328 57.81672 
L 28.49328 85.05624 
Q 28.49328 87.29232 30.70296 87.29232 
z
" clip-path="url(#pf5c7d87af2)" style="fill: #dbeafe; stroke: #93c5fd; stroke-linejoin: miter"/>
   </g>
   <g id="patch_13">
    <path d="M 158.06088 87.29232 
L 257.69736 87.29232 
Q 259.90704 87.29232 259.90704 85.05624 
L 259.90704 57.81672 
Q 259.90704 55.58064 257.69736 55.58064 
L 158.06088 55.58064 
Q 155.8512 55.58064 155.8512 57.81672 
L 155.8512 85.05624 
Q 155.8512 87.29232 158.06088 87.29232 
z
" clip-path="url(#pf5c7d87af2)" style="fill: #dcfce7; stroke: #86efac; stroke-linejoin: miter"/>
   </g>
   <g id="patch_14">
    <path d="M 285.01704 87.29232 
L 384.65352 87.29232 
Q 386.8632 87.29232 386.8632 85.05624 
L 386.8632 57.81672 
Q 386.8632 55.58064 384.65352 55.58064 
L 285.01704 55.58064 
Q 282.80736 55.58064 282.80736 57.81672 
L 282.80736 85.05624 
Q 282.80736 87.29232 285.01704 87.29232 
z
" clip-path="url(#pf5c7d87af2)" style="fill: #ffedd5; stroke: #fdba74; stroke-linejoin: miter"/>
   </g>
   <g id="patch_15">
    <path d="M 22.266 168.19776 
L 69.67368 168.19776 
Q 71.88336 168.19776 71.88336 165.96168 
L 71.88336 134.65656 
Q 71.88336 132.42048 69.67368 132.42048 
L 22.266 132.42048 
Q 20.05632 132.42048 20.05632 134.65656 
L 20.05632 165.96168 
Q 20.05632 168.19776 22.266 168.19776 
z
" clip-path="url(#pf5c7d87af2)" style="fill: #ffffff; stroke: #cbd5e1; stroke-linejoin: miter"/>
   </g>
   <g id="patch_16">
    <path d="M 88.15464 168.19776 
L 135.56232 168.19776 
Q 137.772 168.19776 137.772 165.96168 
L 137.772 134.65656 
Q 137.772 132.42048 135.56232 132.42048 
L 88.15464 132.42048 
Q 85.94496 132.42048 85.94496 134.65656 
L 85.94496 165.96168 
Q 85.94496 168.19776 88.15464 168.19776 
z
" clip-path="url(#pf5c7d87af2)" style="fill: #ffffff; stroke: #cbd5e1; stroke-linejoin: miter"/>
   </g>
   <g id="patch_17">
    <path d="M 154.04328 168.19776 
L 201.45096 168.19776 
Q 203.66064 168.19776 203.66064 165.96168 
L 203.66064 134.65656 
Q 203.66064 132.42048 201.45096 132.42048 
L 154.04328 132.42048 
Q 151.8336 132.42048 151.8336 134.65656 
L 151.8336 165.96168 
Q 151.8336 168.19776 154.04328 168.19776 
z
" clip-path="url(#pf5c7d87af2)" style="fill: #ffffff; stroke: #cbd5e1; stroke-linejoin: miter"/>
   </g>
   <g id="patch_18">
    <path d="M 219.93192 168.19776 
L 267.3396 168.19776 
Q 269.54928 168.19776 269.54928 165.96168 
L 269.54928 134.65656 
Q 269.54928 132.42048 267.3396 132.42048 
L 219.93192 132.42048 
Q 217.72224 132.42048 217.72224 134.65656 
L 217.72224 165.96168 
Q 217.72224 168.19776 219.93192 168.19776 
z
" clip-path="url(#pf5c7d87af2)" style="fill: #ffffff; stroke: #cbd5e1; stroke-linejoin: miter"/>
   </g>
   <g id="patch_19">
    <path d="M 285.82056 168.19776 
L 333.22824 168.19776 
Q 335.43792 168.19776 335.43792 165.96168 
L 335.43792 134.65656 
Q 335.43792 132.42048 333.22824 132.42048 
L 285.82056 132.42048 
Q 283.61088 132.42048 283.61088 134.65656 
L 283.61088 165.96168 
Q 283.61088 168.19776 285.82056 168.19776 
z
" clip-path="url(#pf5c7d87af2)" style="fill: #ffffff; stroke: #cbd5e1; stroke-linejoin: miter"/>
   </g>
   <g id="patch_20">
    <path d="M 351.7092 168.19776 
L 399.11688 168.19776 
Q 401.32656 168.19776 401.32656 165.96168 
L 401.32656 134.65656 
Q 401.32656 132.42048 399.11688 132.42048 
L 351.7092 132.42048 
Q 349.49952 132.42048 349.49952 134.65656 
L 349.49952 165.96168 
Q 349.49952 168.19776 351.7092 168.19776 
z
" clip-path="url(#pf5c7d87af2)" style="fill: #ffffff; stroke: #cbd5e1; stroke-linejoin: miter"/>
   </g>
   <g id="text_1">
    <text style="font-weight: 700; font-size: 12.5px; font-family: 'Arial', 'Helvetica', 'DejaVu Sans', sans-serif; text-anchor: start; fill: #1f2937" x="13.2264" y="21.818421" transform="rotate(-0 13.2264 21.818421)">Figure 2. RMCT as a public-data-driven decision-aid model</text>
   </g>
   <g id="text_2">
    <text style="font-size: 7.8px; font-family: 'Arial', 'Helvetica', 'DejaVu Sans', sans-serif; text-anchor: start; fill: #64748b" x="13.2264" y="34.425199" transform="rotate(-0 13.2264 34.425199)">Public evidence is converted into firm-level capability profiles and evaluated for supplier-search decision support.</text>
   </g>
   <g id="text_3">
    <text style="font-weight: 700; font-size: 8.2px; font-family: 'Arial', 'Helvetica', 'DejaVu Sans', sans-serif; text-anchor: start; fill: #1f2937" x="25.2792" y="56.80032" transform="rotate(-0 25.2792 56.80032)">Decision tasks</text>
   </g>
   <g id="text_4">
    <text style="font-weight: 700; font-size: 8.4px; font-family: 'Arial', 'Helvetica', 'DejaVu Sans', sans-serif; text-anchor: middle; fill: #2b6fa0" x="80.5212" y="70.601682" transform="rotate(-0 80.5212 70.601682)">Supplier discovery</text>
   </g>
   <g id="text_5">
    <text style="font-size: 6.5px; font-family: 'Arial', 'Helvetica', 'DejaVu Sans', sans-serif; text-anchor: middle; fill: #64748b" x="80.5212" y="78.834843" transform="rotate(-0 80.5212 78.834843)">candidate suppliers for a requirement</text>
   </g>
   <g id="text_6">
    <text style="font-weight: 700; font-size: 8.4px; font-family: 'Arial', 'Helvetica', 'DejaVu Sans', sans-serif; text-anchor: middle; fill: #2f855a" x="207.87912" y="70.601682" transform="rotate(-0 207.87912 70.601682)">Regional mapping</text>
   </g>
   <g id="text_7">
    <text style="font-size: 6.5px; font-family: 'Arial', 'Helvetica', 'DejaVu Sans', sans-serif; text-anchor: middle; fill: #64748b" x="207.87912" y="78.834779" transform="rotate(-0 207.87912 78.834779)">visible strengths and gaps</text>
   </g>
   <g id="text_8">
    <text style="font-weight: 700; font-size: 8.4px; font-family: 'Arial', 'Helvetica', 'DejaVu Sans', sans-serif; text-anchor: middle; fill: #b7791f" x="334.83528" y="70.601764" transform="rotate(-0 334.83528 70.601764)">Search refinement</text>
   </g>
   <g id="text_9">
    <text style="font-size: 6.5px; font-family: 'Arial', 'Helvetica', 'DejaVu Sans', sans-serif; text-anchor: middle; fill: #64748b" x="334.83528" y="78.834843" transform="rotate(-0 334.83528 78.834843)">smaller, relevant supplier pools</text>
   </g>
   <g id="text_10">
    <text style="font-weight: 700; font-size: 8.2px; font-family: 'Arial', 'Helvetica', 'DejaVu Sans', sans-serif; text-anchor: start; fill: #1f2937" x="25.2792" y="119.41056" transform="rotate(-0 25.2792 119.41056)">Public-data pipeline</text>
   </g>
   <g id="text_11">
    <text style="font-weight: 700; font-size: 8.4px; font-family: 'Arial', 'Helvetica', 'DejaVu Sans', sans-serif; fill: #1f2937" transform="translate(23.566778 144.496653)">Public data</text>
    <text style="font-weight: 700; font-size: 8.4px; font-family: 'Arial', 'Helvetica', 'DejaVu Sans', sans-serif; fill: #1f2937" transform="translate(35.708715 153.639036)">input</text>
   </g>
   <g id="text_12">
    <text style="font-size: 6.5px; font-family: 'Arial', 'Helvetica', 'DejaVu Sans', sans-serif; fill: #64748b" transform="translate(21.044371 154.942652)">company records</text>
    <text style="font-size: 6.5px; font-family: 'Arial', 'Helvetica', 'DejaVu Sans', sans-serif; fill: #64748b" transform="translate(30.524723 162.017241)">+ websites</text>
   </g>
   <g id="text_13">
    <text style="font-weight: 700; font-size: 8.4px; font-family: 'Arial', 'Helvetica', 'DejaVu Sans', sans-serif; fill: #1f2937" transform="translate(81.51873 144.496571)">Capability term</text>
    <text style="font-weight: 700; font-size: 8.4px; font-family: 'Arial', 'Helvetica', 'DejaVu Sans', sans-serif; fill: #1f2937" transform="translate(91.787074 153.639118)">extraction</text>
   </g>
   <g id="text_14">
    <text style="font-size: 6.5px; font-family: 'Arial', 'Helvetica', 'DejaVu Sans', sans-serif; fill: #64748b" transform="translate(86.212425 154.942715)">process, material,</text>
    <text style="font-size: 6.5px; font-family: 'Arial', 'Helvetica', 'DejaVu Sans', sans-serif; fill: #64748b" transform="translate(84.766683 162.017178)">certification, sector</text>
   </g>
   <g id="text_15">
    <text style="font-weight: 700; font-size: 8.4px; font-family: 'Arial', 'Helvetica', 'DejaVu Sans', sans-serif; fill: #1f2937" transform="translate(156.278558 144.496653)">Dimension</text>
    <text style="font-weight: 700; font-size: 8.4px; font-family: 'Arial', 'Helvetica', 'DejaVu Sans', sans-serif; fill: #1f2937" transform="translate(152.315464 153.639036)">construction</text>
   </g>
   <g id="text_16">
    <text style="font-size: 6.5px; font-family: 'Arial', 'Helvetica', 'DejaVu Sans', sans-serif; fill: #64748b" transform="translate(150.380597 154.942652)">literature + website</text>
    <text style="font-size: 6.5px; font-family: 'Arial', 'Helvetica', 'DejaVu Sans', sans-serif; fill: #64748b" transform="translate(149.93169 162.017114)">semantic clustering</text>
   </g>
   <g id="text_17">
    <text style="font-weight: 700; font-size: 8.4px; font-family: 'Arial', 'Helvetica', 'DejaVu Sans', sans-serif; fill: #1f2937" transform="translate(222.639041 144.496571)">Controlled</text>
    <text style="font-weight: 700; font-size: 8.4px; font-family: 'Arial', 'Helvetica', 'DejaVu Sans', sans-serif; fill: #1f2937" transform="translate(221.460416 153.638954)">vocabulary</text>
   </g>
   <g id="text_18">
    <text style="font-size: 6.5px; font-family: 'Arial', 'Helvetica', 'DejaVu Sans', sans-serif; fill: #64748b" transform="translate(221.055877 154.942715)">preferred labels</text>
    <text style="font-size: 6.5px; font-family: 'Arial', 'Helvetica', 'DejaVu Sans', sans-serif; fill: #64748b" transform="translate(216.446971 162.017178)">+ alternative labels</text>
   </g>
   <g id="text_19">
    <text style="font-weight: 700; font-size: 8.4px; font-family: 'Arial', 'Helvetica', 'DejaVu Sans', sans-serif; fill: #1f2937" transform="translate(289.683994 144.496653)">Firm-level</text>
    <text style="font-weight: 700; font-size: 8.4px; font-family: 'Arial', 'Helvetica', 'DejaVu Sans', sans-serif; fill: #1f2937" transform="translate(294.355838 153.639036)">profiles</text>
   </g>
   <g id="text_20">
    <text style="font-size: 6.5px; font-family: 'Arial', 'Helvetica', 'DejaVu Sans', sans-serif; fill: #64748b" transform="translate(282.064439 154.942588)">capability evidence</text>
    <text style="font-size: 6.5px; font-family: 'Arial', 'Helvetica', 'DejaVu Sans', sans-serif; fill: #64748b" transform="translate(299.774908 162.017178)">by firm</text>
   </g>
   <g id="text_21">
    <text style="font-weight: 700; font-size: 8.4px; font-family: 'Arial', 'Helvetica', 'DejaVu Sans', sans-serif; text-anchor: middle; fill: #1f2937" x="375.41304" y="149.067762" transform="rotate(-0 375.41304 149.067762)">Benchmarking</text>
   </g>
   <g id="text_22">
    <text style="font-size: 6.5px; font-family: 'Arial', 'Helvetica', 'DejaVu Sans', sans-serif; fill: #64748b" transform="translate(345.490188 154.942652)">coverage, specificity,</text>
    <text style="font-size: 6.5px; font-family: 'Arial', 'Helvetica', 'DejaVu Sans', sans-serif; fill: #64748b" transform="translate(353.372454 162.017241)">noise reduction</text>
   </g>
   <g id="patch_21">
    <path d="M 136.16496 214.5456 
L 279.99504 214.5456 
Q 283.20912 214.5456 283.20912 211.29312 
L 283.20912 190.152 
Q 283.20912 186.89952 279.99504 186.89952 
L 136.16496 186.89952 
Q 132.95088 186.89952 132.95088 190.152 
L 132.95088 211.29312 
Q 132.95088 214.5456 136.16496 214.5456 
z
" clip-path="url(#pf5c7d87af2)" style="fill: #1f2937; stroke: #1f2937; stroke-linejoin: miter"/>
   </g>
   <g id="text_23">
    <text style="font-weight: 700; font-size: 9px; font-family: 'Arial', 'Helvetica', 'DejaVu Sans', sans-serif; text-anchor: middle; fill: #ffffff" x="208.08" y="201.831894" transform="rotate(-0 208.08 201.831894)">RMCT operational layer</text>
   </g>
   <g id="text_24">
    <text style="font-size: 6.7px; font-family: 'Arial', 'Helvetica', 'DejaVu Sans', sans-serif; text-anchor: middle; fill: #d1d5db" x="208.08" y="210.181021" transform="rotate(-0 208.08 210.181021)">taxonomy + controlled vocabulary + firm capability profiles</text>
   </g>
   <g id="text_25">
    <text style="font-size: 7.3px; font-family: 'Arial', 'Helvetica', 'DejaVu Sans', sans-serif; text-anchor: middle; fill: #1f2937" x="208.08" y="235.949569" transform="rotate(-0 208.08 235.949569)">The model links observable website evidence to capability-based supplier discovery and regional supply-chain intelligence.</text>
   </g>
  </g>
 </g>
 <defs>
  <clipPath id="pf5c7d87af2">
   <rect x="7.2" y="7.2" width="401.76" height="243.936"/>
  </clipPath>
 </defs>
</svg>
