<?xml version="1.0" encoding="utf-8" standalone="no"?>
<!DOCTYPE svg PUBLIC "-//W3C//DTD SVG 1.1//EN"
  "http://www.w3.org/Graphics/SVG/1.1/DTD/svg11.dtd">
<svg height="267.882399pt" version="1.1" viewBox="0 0 501.696 267.882399" width="501.696pt" xmlns="http://www.w3.org/2000/svg" xmlns:xlink="http://www.w3.org/1999/xlink">
 <metadata>
  <rdf:RDF xmlns:cc="http://creativecommons.org/ns#" xmlns:dc="http://purl.org/dc/elements/1.1/" xmlns:rdf="http://www.w3.org/1999/02/22-rdf-syntax-ns#">
   <cc:Work>
    <dc:type rdf:resource="http://purl.org/dc/dcmitype/StillImage"/>
    <dc:date>2026-07-09T01:59:06.549691</dc:date>
    <dc:format>image/svg+xml</dc:format>
    <dc:creator>
     <cc:Agent>
      <dc:title>Matplotlib v3.4.3, https://matplotlib.org/</dc:title>
     </cc:Agent>
    </dc:creator>
   </cc:Work>
  </rdf:RDF>
 </metadata>
 <defs>
  <style type="text/css">*{stroke-linecap:butt;stroke-linejoin:round;}</style>
 </defs>
 <g id="figure_1">
  <g id="patch_1">
   <path d="M -0 267.882399 
L 501.696 267.882399 
L 501.696 0 
L -0 0 
z
" style="fill:#ffffff;"/>
  </g>
  <g id="axes_1">
   <g id="patch_2">
    <path clip-path="url(#peff23bdfe2)" d="M 121.30848 203.477371 
L 189.52992 203.477371 
Q 192.77856 203.477371 192.77856 200.580913 
L 192.77856 70.964456 
Q 192.77856 68.067999 189.52992 68.067999 
L 121.30848 68.067999 
Q 118.05984 68.067999 118.05984 70.964456 
L 118.05984 200.580913 
Q 118.05984 203.477371 121.30848 203.477371 
z
" style="fill:#f1f3f5;stroke:#c8d0d8;stroke-dasharray:4,3;stroke-dashoffset:0;stroke-linejoin:miter;"/>
   </g>
   <g id="patch_3">
    <path clip-path="url(#peff23bdfe2)" d="M 20.032128 56.626993 
L 203.499072 56.626993 
Q 206.747712 56.626993 206.747712 53.730536 
L 206.747712 41.130948 
Q 206.747712 38.234491 203.499072 38.234491 
L 20.032128 38.234491 
Q 16.783488 38.234491 16.783488 41.130948 
L 16.783488 53.730536 
Q 16.783488 56.626993 20.032128 56.626993 
z
" style="fill:#ffffff;stroke:#b8c3cf;stroke-linejoin:miter;stroke-width:1.2;"/>
   </g>
   <g id="patch_4">
    <path clip-path="url(#peff23bdfe2)" d="M 36.275328 148.951565 
L 93.857472 148.951565 
Q 97.106112 148.951565 97.106112 146.055108 
L 97.106112 124.766148 
Q 97.106112 121.869691 93.857472 121.869691 
L 36.275328 121.869691 
Q 33.026688 121.869691 33.026688 124.766148 
L 33.026688 146.055108 
Q 33.026688 148.951565 36.275328 148.951565 
z
" style="fill:#b8c3cf;stroke:#8e99a6;stroke-linejoin:miter;stroke-width:1.2;"/>
   </g>
   <g id="patch_5">
    <path clip-path="url(#peff23bdfe2)" d="M 97.630997 137.085098 
Q 113.794958 161.839203 129.561589 185.984823 
" style="fill:none;opacity:0.5;stroke:#687385;stroke-linecap:round;stroke-width:0.65;"/>
    <path clip-path="url(#peff23bdfe2)" d="M 129.25417 183.31921 
L 129.561589 185.984823 
L 127.244647 184.63139 
L 129.25417 183.31921 
z
" style="fill:#687385;opacity:0.5;stroke:#687385;stroke-linecap:round;stroke-width:0.65;"/>
   </g>
   <g id="patch_6">
    <path clip-path="url(#peff23bdfe2)" d="M 98.255211 136.427919 
Q 124.962226 152.245708 151.043959 167.693161 
" style="fill:none;opacity:0.5;stroke:#687385;stroke-linecap:round;stroke-width:0.65;"/>
    <path clip-path="url(#peff23bdfe2)" d="M 149.590486 165.437631 
L 151.043959 167.693161 
L 148.367451 167.502622 
L 149.590486 165.437631 
z
" style="fill:#687385;opacity:0.5;stroke:#687385;stroke-linecap:round;stroke-width:0.65;"/>
   </g>
   <g id="patch_7">
    <path clip-path="url(#peff23bdfe2)" d="M 98.378889 136.183181 
Q 113.793258 142.65062 128.5375 148.836893 
" style="fill:none;opacity:0.5;stroke:#687385;stroke-linecap:round;stroke-width:0.65;"/>
    <path clip-path="url(#peff23bdfe2)" d="M 126.788682 146.801792 
L 128.5375 148.836893 
L 125.860129 149.014887 
L 126.788682 146.801792 
z
" style="fill:#687385;opacity:0.5;stroke:#687385;stroke-linecap:round;stroke-width:0.65;"/>
   </g>
   <g id="patch_8">
    <path clip-path="url(#peff23bdfe2)" d="M 98.532805 135.245444 
Q 124.96473 133.05713 150.67241 130.928776 
" style="fill:none;opacity:0.5;stroke:#687385;stroke-linecap:round;stroke-width:0.65;"/>
    <path clip-path="url(#peff23bdfe2)" d="M 148.181583 129.930888 
L 150.67241 130.928776 
L 148.379603 132.322705 
L 148.181583 129.930888 
z
" style="fill:#687385;opacity:0.5;stroke:#687385;stroke-linecap:round;stroke-width:0.65;"/>
   </g>
   <g id="patch_9">
    <path clip-path="url(#peff23bdfe2)" d="M 98.182963 134.271553 
Q 113.798099 123.461289 128.815727 113.064676 
" style="fill:none;opacity:0.5;stroke:#687385;stroke-linecap:round;stroke-width:0.65;"/>
    <path clip-path="url(#peff23bdfe2)" d="M 126.15941 113.444125 
L 128.815727 113.064676 
L 127.525495 115.417399 
L 126.15941 113.444125 
z
" style="fill:#687385;opacity:0.5;stroke:#687385;stroke-linecap:round;stroke-width:0.65;"/>
   </g>
   <g id="patch_10">
    <path clip-path="url(#peff23bdfe2)" d="M 98.130294 134.203601 
Q 124.961901 113.869212 151.21432 93.973762 
" style="fill:none;opacity:0.5;stroke:#687385;stroke-linecap:round;stroke-width:0.65;"/>
    <path clip-path="url(#peff23bdfe2)" d="M 148.576756 94.466973 
L 151.21432 93.973762 
L 150.02635 96.379739 
L 148.576756 94.466973 
z
" style="fill:#687385;opacity:0.5;stroke:#687385;stroke-linecap:round;stroke-width:0.65;"/>
   </g>
   <g id="patch_11">
    <path clip-path="url(#peff23bdfe2)" d="M 212.241525 133.962399 
Q 241.713267 133.962399 269.619762 133.962399 
" style="fill:none;stroke:#2f6f9f;stroke-linecap:round;stroke-width:1.4;"/>
    <path clip-path="url(#peff23bdfe2)" d="M 264.419762 131.362399 
L 269.619762 133.962399 
L 264.419762 136.562399 
L 264.419762 131.362399 
z
" style="fill:#2f6f9f;stroke:#2f6f9f;stroke-linecap:round;stroke-width:1.4;"/>
   </g>
   <g id="patch_12">
    <path clip-path="url(#peff23bdfe2)" d="M 220.229568 122.883451 
L 263.598912 122.883451 
Q 266.847552 122.883451 266.847552 119.986993 
L 266.847552 104.853005 
Q 266.847552 101.956548 263.598912 101.956548 
L 220.229568 101.956548 
Q 216.980928 101.956548 216.980928 104.853005 
L 216.980928 119.986993 
Q 216.980928 122.883451 220.229568 122.883451 
z
" style="fill:#edf5fa;stroke:#2f6f9f;stroke-linejoin:miter;stroke-width:1.2;"/>
   </g>
   <g id="patch_13">
    <path clip-path="url(#peff23bdfe2)" d="M 296.166528 56.626993 
L 479.633472 56.626993 
Q 482.882112 56.626993 482.882112 53.730536 
L 482.882112 41.130948 
Q 482.882112 38.234491 479.633472 38.234491 
L 296.166528 38.234491 
Q 292.917888 38.234491 292.917888 41.130948 
L 292.917888 53.730536 
Q 292.917888 56.626993 296.166528 56.626993 
z
" style="fill:#ffffff;stroke:#2f6f9f;stroke-linejoin:miter;stroke-width:1.2;"/>
   </g>
   <g id="patch_14">
    <path clip-path="url(#peff23bdfe2)" d="M 364.794048 84.867451 
L 404.914752 84.867451 
Q 408.163392 84.867451 408.163392 81.970993 
L 408.163392 70.095519 
Q 408.163392 67.199062 404.914752 67.199062 
L 364.794048 67.199062 
Q 361.545408 67.199062 361.545408 70.095519 
L 361.545408 81.970993 
Q 361.545408 84.867451 364.794048 84.867451 
z
" style="fill:#dfeaf4;stroke:#ffffff;stroke-linejoin:miter;stroke-width:1.2;"/>
   </g>
   <g id="patch_15">
    <path clip-path="url(#peff23bdfe2)" d="M 341.640935 133.880304 
Q 351.149147 105.904774 360.423502 78.617311 
" style="fill:none;opacity:0.65;stroke:#2f6f9f;stroke-linecap:round;stroke-width:0.65;"/>
    <path clip-path="url(#peff23bdfe2)" d="M 358.515018 80.503494 
L 360.423502 78.617311 
L 360.787358 81.275808 
L 358.515018 80.503494 
z
" style="fill:#2f6f9f;opacity:0.65;stroke:#2f6f9f;stroke-linecap:round;stroke-width:0.65;"/>
   </g>
   <g id="patch_16">
    <path clip-path="url(#peff23bdfe2)" d="M 415.554048 92.108593 
L 455.674752 92.108593 
Q 458.923392 92.108593 458.923392 89.212136 
L 458.923392 77.336662 
Q 458.923392 74.440205 455.674752 74.440205 
L 415.554048 74.440205 
Q 412.305408 74.440205 412.305408 77.336662 
L 412.305408 89.212136 
Q 412.305408 92.108593 415.554048 92.108593 
z
" style="fill:#e8f0df;stroke:#ffffff;stroke-linejoin:miter;stroke-width:1.2;"/>
   </g>
   <g id="patch_17">
    <path clip-path="url(#peff23bdfe2)" d="M 342.604768 134.585514 
Q 376.528853 109.524212 409.868419 84.894722 
" style="fill:none;opacity:0.65;stroke:#2f6f9f;stroke-linecap:round;stroke-width:0.65;"/>
    <path clip-path="url(#peff23bdfe2)" d="M 407.225012 85.355593 
L 409.868419 84.894722 
L 408.651072 87.28597 
L 407.225012 85.355593 
z
" style="fill:#2f6f9f;opacity:0.65;stroke:#2f6f9f;stroke-linecap:round;stroke-width:0.65;"/>
   </g>
   <g id="patch_18">
    <path clip-path="url(#peff23bdfe2)" d="M 433.827648 131.934879 
L 473.948352 131.934879 
Q 477.196992 131.934879 477.196992 129.038422 
L 477.196992 117.162948 
Q 477.196992 114.266491 473.948352 114.266491 
L 433.827648 114.266491 
Q 430.579008 114.266491 430.579008 117.162948 
L 430.579008 129.038422 
Q 430.579008 131.934879 433.827648 131.934879 
z
" style="fill:#f9ead8;stroke:#ffffff;stroke-linejoin:miter;stroke-width:1.2;"/>
   </g>
   <g id="patch_19">
    <path clip-path="url(#peff23bdfe2)" d="M 342.979829 135.49154 
Q 385.66722 129.436591 427.635092 123.483702 
" style="fill:none;opacity:0.65;stroke:#2f6f9f;stroke-linecap:round;stroke-width:0.65;"/>
    <path clip-path="url(#peff23bdfe2)" d="M 425.090351 122.632646 
L 427.635092 123.483702 
L 425.427403 125.008861 
L 425.090351 122.632646 
z
" style="fill:#2f6f9f;opacity:0.65;stroke:#2f6f9f;stroke-linecap:round;stroke-width:0.65;"/>
   </g>
   <g id="patch_20">
    <path clip-path="url(#peff23bdfe2)" d="M 419.614848 177.192022 
L 459.735552 177.192022 
Q 462.984192 177.192022 462.984192 174.295565 
L 462.984192 162.420091 
Q 462.984192 159.523633 459.735552 159.523633 
L 419.614848 159.523633 
Q 416.366208 159.523633 416.366208 162.420091 
L 416.366208 174.295565 
Q 416.366208 177.192022 419.614848 177.192022 
z
" style="fill:#edf0fa;stroke:#ffffff;stroke-linejoin:miter;stroke-width:1.2;"/>
   </g>
   <g id="patch_21">
    <path clip-path="url(#peff23bdfe2)" d="M 342.836447 136.570209 
Q 378.560296 152.065315 413.617438 167.271239 
" style="fill:none;opacity:0.65;stroke:#2f6f9f;stroke-linecap:round;stroke-width:0.65;"/>
    <path clip-path="url(#peff23bdfe2)" d="M 411.893149 165.215314 
L 413.617438 167.271239 
L 410.938124 167.417115 
L 411.893149 165.215314 
z
" style="fill:#2f6f9f;opacity:0.65;stroke:#2f6f9f;stroke-linecap:round;stroke-width:0.65;"/>
   </g>
   <g id="patch_22">
    <path clip-path="url(#peff23bdfe2)" d="M 368.854848 200.725736 
L 408.975552 200.725736 
Q 412.224192 200.725736 412.224192 197.829279 
L 412.224192 185.953805 
Q 412.224192 183.057348 408.975552 183.057348 
L 368.854848 183.057348 
Q 365.606208 183.057348 365.606208 185.953805 
L 365.606208 197.829279 
Q 365.606208 200.725736 368.854848 200.725736 
z
" style="fill:#f5e8ee;stroke:#ffffff;stroke-linejoin:miter;stroke-width:1.2;"/>
   </g>
   <g id="patch_23">
    <path clip-path="url(#peff23bdfe2)" d="M 341.793364 137.605179 
Q 353.180203 163.832212 364.277626 189.392639 
" style="fill:none;opacity:0.65;stroke:#2f6f9f;stroke-linecap:round;stroke-width:0.65;"/>
    <path clip-path="url(#peff23bdfe2)" d="M 364.422561 186.713275 
L 364.277626 189.392639 
L 362.221095 187.669072 
L 364.422561 186.713275 
z
" style="fill:#2f6f9f;opacity:0.65;stroke:#2f6f9f;stroke-linecap:round;stroke-width:0.65;"/>
   </g>
   <g id="patch_24">
    <path clip-path="url(#peff23bdfe2)" d="M 334.338048 188.053736 
L 374.458752 188.053736 
Q 377.707392 188.053736 377.707392 185.157279 
L 377.707392 173.281805 
Q 377.707392 170.385348 374.458752 170.385348 
L 334.338048 170.385348 
Q 331.089408 170.385348 331.089408 173.281805 
L 331.089408 185.157279 
Q 331.089408 188.053736 334.338048 188.053736 
z
" style="fill:#e2f1ef;stroke:#ffffff;stroke-linejoin:miter;stroke-width:1.2;"/>
   </g>
   <g id="patch_25">
    <path clip-path="url(#peff23bdfe2)" d="M 340.542333 137.721747 
Q 335.921606 157.496774 331.466234 176.56414 
" style="fill:none;opacity:0.65;stroke:#2f6f9f;stroke-linecap:round;stroke-width:0.65;"/>
    <path clip-path="url(#peff23bdfe2)" d="M 333.180843 174.500135 
L 331.466234 176.56414 
L 330.843796 173.95405 
L 333.180843 174.500135 
z
" style="fill:#2f6f9f;opacity:0.65;stroke:#2f6f9f;stroke-linecap:round;stroke-width:0.65;"/>
   </g>
   <g id="patch_26">
    <path clip-path="url(#peff23bdfe2)" d="M 326.216448 101.160022 
L 366.337152 101.160022 
Q 369.585792 101.160022 369.585792 98.263565 
L 369.585792 86.388091 
Q 369.585792 83.491633 366.337152 83.491633 
L 326.216448 83.491633 
Q 322.967808 83.491633 322.967808 86.388091 
L 322.967808 98.263565 
Q 322.967808 101.160022 326.216448 101.160022 
z
" style="fill:#f4f1db;stroke:#ffffff;stroke-linejoin:miter;stroke-width:1.2;"/>
   </g>
   <g id="patch_27">
    <path clip-path="url(#peff23bdfe2)" d="M 340.222604 133.929694 
Q 331.861607 114.050796 323.782361 94.84178 
" style="fill:none;opacity:0.65;stroke:#2f6f9f;stroke-linecap:round;stroke-width:0.65;"/>
    <path clip-path="url(#peff23bdfe2)" d="M 323.606698 97.519305 
L 323.782361 94.84178 
L 325.818983 96.588825 
L 323.606698 97.519305 
z
" style="fill:#2f6f9f;opacity:0.65;stroke:#2f6f9f;stroke-linecap:round;stroke-width:0.65;"/>
   </g>
   <g id="patch_28">
    <path clip-path="url(#peff23bdfe2)" d="M 383.067648 144.606879 
L 423.188352 144.606879 
Q 426.436992 144.606879 426.436992 141.710422 
L 426.436992 129.834948 
Q 426.436992 126.938491 423.188352 126.938491 
L 383.067648 126.938491 
Q 379.819008 126.938491 379.819008 129.834948 
L 379.819008 141.710422 
Q 379.819008 144.606879 383.067648 144.606879 
z
" style="fill:#e9e4f5;stroke:#ffffff;stroke-linejoin:miter;stroke-width:1.2;"/>
   </g>
   <g id="patch_29">
    <path clip-path="url(#peff23bdfe2)" d="M 342.999161 135.772685 
Q 360.289363 135.772685 376.852842 135.772685 
" style="fill:none;opacity:0.65;stroke:#2f6f9f;stroke-linecap:round;stroke-width:0.65;"/>
    <path clip-path="url(#peff23bdfe2)" d="M 374.452842 134.572685 
L 376.852842 135.772685 
L 374.452842 136.972685 
L 374.452842 134.572685 
z
" style="fill:#2f6f9f;opacity:0.65;stroke:#2f6f9f;stroke-linecap:round;stroke-width:0.65;"/>
   </g>
   <g id="patch_30">
    <path clip-path="url(#peff23bdfe2)" d="M 139.176 194.787999 
C 141.114486 194.787999 142.973838 194.101324 144.344555 192.879206 
C 145.715271 191.657087 146.48544 189.999307 146.48544 188.270971 
C 146.48544 186.542634 145.715271 184.884854 144.344555 183.662735 
C 142.973838 182.440617 141.114486 181.753942 139.176 181.753942 
C 137.237514 181.753942 135.378162 182.440617 134.007445 183.662735 
C 132.636729 184.884854 131.86656 186.542634 131.86656 188.270971 
C 131.86656 189.999307 132.636729 191.657087 134.007445 192.879206 
C 135.378162 194.101324 137.237514 194.787999 139.176 194.787999 
z
" style="fill:#9ba8b5;stroke:#ffffff;stroke-linejoin:miter;stroke-width:1.1;"/>
   </g>
   <g id="patch_31">
    <path clip-path="url(#peff23bdfe2)" d="M 161.5104 175.598971 
C 163.448886 175.598971 165.308238 174.912295 166.678955 173.690177 
C 168.049671 172.468059 168.81984 170.810278 168.81984 169.081942 
C 168.81984 167.353606 168.049671 165.695825 166.678955 164.473707 
C 165.308238 163.251589 163.448886 162.564913 161.5104 162.564913 
C 159.571914 162.564913 157.712562 163.251589 156.341845 164.473707 
C 154.971129 165.695825 154.20096 167.353606 154.20096 169.081942 
C 154.20096 170.810278 154.971129 172.468059 156.341845 173.690177 
C 157.712562 174.912295 159.571914 175.598971 161.5104 175.598971 
z
" style="fill:#9ba8b5;stroke:#ffffff;stroke-linejoin:miter;stroke-width:1.1;"/>
   </g>
   <g id="patch_32">
    <path clip-path="url(#peff23bdfe2)" d="M 139.176 156.409942 
C 141.114486 156.409942 142.973838 155.723267 144.344555 154.501148 
C 145.715271 153.27903 146.48544 151.62125 146.48544 149.892913 
C 146.48544 148.164577 145.715271 146.506797 144.344555 145.284678 
C 142.973838 144.06256 141.114486 143.375885 139.176 143.375885 
C 137.237514 143.375885 135.378162 144.06256 134.007445 145.284678 
C 132.636729 146.506797 131.86656 148.164577 131.86656 149.892913 
C 131.86656 151.62125 132.636729 153.27903 134.007445 154.501148 
C 135.378162 155.723267 137.237514 156.409942 139.176 156.409942 
z
" style="fill:#9ba8b5;stroke:#ffffff;stroke-linejoin:miter;stroke-width:1.1;"/>
   </g>
   <g id="patch_33">
    <path clip-path="url(#peff23bdfe2)" d="M 161.5104 137.220913 
C 163.448886 137.220913 165.308238 136.534238 166.678955 135.31212 
C 168.049671 134.090002 168.81984 132.432221 168.81984 130.703885 
C 168.81984 128.975549 168.049671 127.317768 166.678955 126.09565 
C 165.308238 124.873531 163.448886 124.186856 161.5104 124.186856 
C 159.571914 124.186856 157.712562 124.873531 156.341845 126.09565 
C 154.971129 127.317768 154.20096 128.975549 154.20096 130.703885 
C 154.20096 132.432221 154.971129 134.090002 156.341845 135.31212 
C 157.712562 136.534238 159.571914 137.220913 161.5104 137.220913 
z
" style="fill:#9ba8b5;stroke:#ffffff;stroke-linejoin:miter;stroke-width:1.1;"/>
   </g>
   <g id="patch_34">
    <path clip-path="url(#peff23bdfe2)" d="M 139.176 118.031885 
C 141.114486 118.031885 142.973838 117.34521 144.344555 116.123091 
C 145.715271 114.900973 146.48544 113.243192 146.48544 111.514856 
C 146.48544 109.78652 145.715271 108.128739 144.344555 106.906621 
C 142.973838 105.684503 141.114486 104.997828 139.176 104.997828 
C 137.237514 104.997828 135.378162 105.684503 134.007445 106.906621 
C 132.636729 108.128739 131.86656 109.78652 131.86656 111.514856 
C 131.86656 113.243192 132.636729 114.900973 134.007445 116.123091 
C 135.378162 117.34521 137.237514 118.031885 139.176 118.031885 
z
" style="fill:#9ba8b5;stroke:#ffffff;stroke-linejoin:miter;stroke-width:1.1;"/>
   </g>
   <g id="patch_35">
    <path clip-path="url(#peff23bdfe2)" d="M 161.5104 98.842856 
C 163.448886 98.842856 165.308238 98.156181 166.678955 96.934063 
C 168.049671 95.711945 168.81984 94.054164 168.81984 92.325828 
C 168.81984 90.597491 168.049671 88.939711 166.678955 87.717593 
C 165.308238 86.495474 163.448886 85.808799 161.5104 85.808799 
C 159.571914 85.808799 157.712562 86.495474 156.341845 87.717593 
C 154.971129 88.939711 154.20096 90.597491 154.20096 92.325828 
C 154.20096 94.054164 154.971129 95.711945 156.341845 96.934063 
C 157.712562 98.156181 159.571914 98.842856 161.5104 98.842856 
z
" style="fill:#9ba8b5;stroke:#ffffff;stroke-linejoin:miter;stroke-width:1.1;"/>
   </g>
   <g id="patch_36">
    <path clip-path="url(#peff23bdfe2)" d="M 325.9728 149.530856 
C 330.06516 149.530856 333.990458 148.081209 336.884193 145.501181 
C 339.777928 142.921154 341.40384 139.421395 341.40384 135.772685 
C 341.40384 132.123975 339.777928 128.624216 336.884193 126.044189 
C 333.990458 123.464161 330.06516 122.014513 325.9728 122.014513 
C 321.88044 122.014513 317.955142 123.464161 315.061407 126.044189 
C 312.167672 128.624216 310.54176 132.123975 310.54176 135.772685 
C 310.54176 139.421395 312.167672 142.921154 315.061407 145.501181 
C 317.955142 148.081209 321.88044 149.530856 325.9728 149.530856 
z
" style="fill:#2f6f9f;stroke:#ffffff;stroke-linejoin:miter;stroke-width:1.1;"/>
   </g>
   <g id="text_1">
    <text style="fill:#1b2430;font-family:Arial;font-size:11px;font-stretch:normal;font-style:normal;font-weight:bold;text-anchor:start;" transform="rotate(-0, 7.2, 15.207656)" x="7.2" y="15.207656">Figure 1. From SIC-based visibility to capability-level visibility</text>
   </g>
   <g id="text_2">
    <text style="fill:#1b2430;font-family:Arial;font-size:8.8px;font-stretch:normal;font-style:normal;font-weight:bold;text-anchor:middle;" transform="rotate(-0, 111.7656, 49.707742)" x="111.7656" y="49.707742">(a) SIC-based view</text>
   </g>
   <g id="text_3">
    <text style="fill:#1b2430;font-family:Arial;font-size:8px;font-stretch:normal;font-style:normal;font-weight:bold;" transform="translate(47.952025 133.585034)">SIC code</text>
    <text style="fill:#1b2430;font-family:Arial;font-size:8px;font-stretch:normal;font-style:normal;font-weight:bold;" transform="translate(53.5064 141.278721)">family</text>
   </g>
   <g id="text_4">
    <text style="fill:#1b2430;font-family:Arial;font-size:7.8px;font-stretch:normal;font-style:normal;font-weight:bold;text-anchor:middle;" transform="rotate(-0, 155.4192, 78.929713)" x="155.4192" y="78.929713">Firm pool</text>
   </g>
   <g id="text_5">
    <text style="fill:#687385;font-family:Arial;font-size:7.2px;font-stretch:normal;font-style:normal;font-weight:normal;" transform="translate(76.758862 211.346103)">High population reach,</text>
    <text style="fill:#687385;font-family:Arial;font-size:7.2px;font-stretch:normal;font-style:normal;font-weight:normal;" transform="translate(81.765675 219.045828)">low capability detail</text>
   </g>
   <g id="text_6">
    <text style="fill:#2f6f9f;font-family:Arial;font-size:9.3px;font-stretch:normal;font-style:normal;font-weight:bold;text-anchor:middle;" transform="rotate(-0, 241.91424, 114.830733)" x="241.91424" y="114.830733">RMCT</text>
   </g>
   <g id="text_7">
    <text style="fill:#687385;font-family:Arial;font-size:7px;font-stretch:normal;font-style:normal;font-weight:normal;" transform="translate(204.949318 146.471729)">public website evidence</text>
    <text style="fill:#687385;font-family:Arial;font-size:7px;font-stretch:normal;font-style:normal;font-weight:normal;" transform="translate(205.825959 153.875542)">+ controlled vocabulary</text>
   </g>
   <g id="text_8">
    <text style="fill:#1b2430;font-family:Arial;font-size:8.8px;font-stretch:normal;font-style:normal;font-weight:bold;text-anchor:middle;" transform="rotate(-0, 387.9, 49.707742)" x="387.9" y="49.707742">(b) Capability-level view</text>
   </g>
   <g id="text_9">
    <text style="fill:#1b2430;font-family:Arial;font-size:6.15px;font-stretch:normal;font-style:normal;font-weight:bold;text-anchor:middle;" transform="rotate(-0, 384.8544, 77.627452)" x="384.8544" y="77.627452">Process</text>
   </g>
   <g id="text_10">
    <text style="fill:#1b2430;font-family:Arial;font-size:6.15px;font-stretch:normal;font-style:normal;font-weight:bold;text-anchor:middle;" transform="rotate(-0, 435.6144, 84.868594)" x="435.6144" y="84.868594">Material</text>
   </g>
   <g id="text_11">
    <text style="fill:#1b2430;font-family:Arial;font-size:6.15px;font-stretch:normal;font-style:normal;font-weight:bold;" transform="translate(434.241152 121.69726)">Certification /</text>
    <text style="fill:#1b2430;font-family:Arial;font-size:6.15px;font-stretch:normal;font-style:normal;font-weight:bold;" transform="translate(443.465672 127.611782)">Quality</text>
   </g>
   <g id="text_12">
    <text style="fill:#1b2430;font-family:Arial;font-size:6.15px;font-stretch:normal;font-style:normal;font-weight:bold;" transform="translate(428.396677 167.034112)">Sector /</text>
    <text style="fill:#1b2430;font-family:Arial;font-size:6.15px;font-stretch:normal;font-style:normal;font-weight:bold;" transform="translate(429.76313 172.869934)">Market</text>
   </g>
   <g id="text_13">
    <text style="fill:#1b2430;font-family:Arial;font-size:6.15px;font-stretch:normal;font-style:normal;font-weight:bold;" transform="translate(376.955372 190.524584)">Design /</text>
    <text style="fill:#1b2430;font-family:Arial;font-size:6.15px;font-stretch:normal;font-style:normal;font-weight:bold;" transform="translate(371.147946 196.441125)">Engineering</text>
   </g>
   <g id="text_14">
    <text style="fill:#1b2430;font-family:Arial;font-size:6.15px;font-stretch:normal;font-style:normal;font-weight:bold;" transform="translate(343.294287 177.892944)">Digital /</text>
    <text style="fill:#1b2430;font-family:Arial;font-size:6.15px;font-stretch:normal;font-style:normal;font-weight:bold;" transform="translate(345.682216 183.809484)">Smart</text>
   </g>
   <g id="text_15">
    <text style="fill:#1b2430;font-family:Arial;font-size:6.15px;font-stretch:normal;font-style:normal;font-weight:bold;" transform="translate(326.96532 90.922402)">Commercial /</text>
    <text style="fill:#1b2430;font-family:Arial;font-size:6.15px;font-stretch:normal;font-style:normal;font-weight:bold;" transform="translate(336.02696 96.836925)">Supply</text>
   </g>
   <g id="text_16">
    <text style="fill:#1b2430;font-family:Arial;font-size:6.15px;font-stretch:normal;font-style:normal;font-weight:bold;" transform="translate(381.42907 134.366377)">Sustainability /</text>
    <text style="fill:#1b2430;font-family:Arial;font-size:6.15px;font-stretch:normal;font-style:normal;font-weight:bold;" transform="translate(389.96748 140.361618)">Lifecycle</text>
   </g>
   <g id="text_17">
    <text style="fill:#687385;font-family:Arial;font-size:7.2px;font-stretch:normal;font-style:normal;font-weight:normal;" transform="translate(359.96805 211.325178)">Searchable multi-dimensional</text>
    <text style="fill:#687385;font-family:Arial;font-size:7.2px;font-stretch:normal;font-style:normal;font-weight:normal;" transform="translate(381.3768 219.045828)">capability profile</text>
   </g>
   <g id="text_18">
    <text style="fill:#ffffff;font-family:Arial;font-size:6.7px;font-stretch:normal;font-style:normal;font-weight:bold;text-anchor:middle;" transform="rotate(-0, 139.176, 190.007736)" x="139.176" y="190.007736">F1</text>
   </g>
   <g id="text_19">
    <text style="fill:#ffffff;font-family:Arial;font-size:6.7px;font-stretch:normal;font-style:normal;font-weight:bold;text-anchor:middle;" transform="rotate(-0, 161.5104, 170.818708)" x="161.5104" y="170.818708">F2</text>
   </g>
   <g id="text_20">
    <text style="fill:#ffffff;font-family:Arial;font-size:6.7px;font-stretch:normal;font-style:normal;font-weight:bold;text-anchor:middle;" transform="rotate(-0, 139.176, 151.629679)" x="139.176" y="151.629679">F3</text>
   </g>
   <g id="text_21">
    <text style="fill:#ffffff;font-family:Arial;font-size:6.7px;font-stretch:normal;font-style:normal;font-weight:bold;text-anchor:middle;" transform="rotate(-0, 161.5104, 132.44065)" x="161.5104" y="132.44065">F4</text>
   </g>
   <g id="text_22">
    <text style="fill:#ffffff;font-family:Arial;font-size:6.7px;font-stretch:normal;font-style:normal;font-weight:bold;text-anchor:middle;" transform="rotate(-0, 139.176, 113.251622)" x="139.176" y="113.251622">F5</text>
   </g>
   <g id="text_23">
    <text style="fill:#ffffff;font-family:Arial;font-size:6.7px;font-stretch:normal;font-style:normal;font-weight:bold;text-anchor:middle;" transform="rotate(-0, 161.5104, 94.062593)" x="161.5104" y="94.062593">F6</text>
   </g>
   <g id="text_24">
    <text style="fill:#ffffff;font-family:Arial;font-size:7.2px;font-stretch:normal;font-style:normal;font-weight:bold;" transform="translate(318.171487 134.438969)">Firm</text>
    <text style="fill:#ffffff;font-family:Arial;font-size:7.2px;font-stretch:normal;font-style:normal;font-weight:bold;" transform="translate(314.973112 140.83915)">profile</text>
   </g>
  </g>
 </g>
 <defs>
  <clipPath id="peff23bdfe2">
   <rect height="253.44" width="487.296" x="7.2" y="7.242399"/>
  </clipPath>
 </defs>
</svg>
