<?xml version="1.0" encoding="utf-8" standalone="no"?>
<!DOCTYPE svg PUBLIC "-//W3C//DTD SVG 1.1//EN"
  "http://www.w3.org/Graphics/SVG/1.1/DTD/svg11.dtd">
<svg xmlns:xlink="http://www.w3.org/1999/xlink" width="639.36pt" height="358.128pt" viewBox="0 0 639.36 358.128" xmlns="http://www.w3.org/2000/svg" version="1.1">
 <metadata>
  <rdf:RDF xmlns:dc="http://purl.org/dc/elements/1.1/" xmlns:cc="http://creativecommons.org/ns#" xmlns:rdf="http://www.w3.org/1999/02/22-rdf-syntax-ns#">
   <cc:Work>
    <dc:type rdf:resource="http://purl.org/dc/dcmitype/StillImage"/>
    <dc:date>2026-07-09T11:34:42.638844</dc:date>
    <dc:format>image/svg+xml</dc:format>
    <dc:creator>
     <cc:Agent>
      <dc:title>Matplotlib v3.11.0, https://matplotlib.org/</dc:title>
     </cc:Agent>
    </dc:creator>
   </cc:Work>
  </rdf:RDF>
 </metadata>
 <defs>
  <style type="text/css">*{stroke-linejoin: round; stroke-linecap: butt}</style>
 </defs>
 <g id="figure_1">
  <g id="patch_1">
   <path d="M 0 358.128 
L 639.36 358.128 
L 639.36 0 
L 0 0 
z
" style="fill: #ffffff"/>
  </g>
  <g id="axes_1">
   <g id="patch_2">
    <path d="M 43.44768 116.161776 
L 164.68992 116.161776 
Q 180.31392 116.161776 180.31392 107.568576 
L 180.31392 83.851344 
Q 180.31392 75.258144 164.68992 75.258144 
L 43.44768 75.258144 
Q 27.82368 75.258144 27.82368 83.851344 
L 27.82368 107.568576 
Q 27.82368 116.161776 43.44768 116.161776 
z
" clip-path="url(#p8fb7ec1144)" style="fill: #eaf2fb; stroke: #8bb7dd; stroke-width: 1.2; stroke-linejoin: miter"/>
   </g>
   <g id="patch_3">
    <path d="M 43.44768 160.846416 
L 164.68992 160.846416 
Q 180.31392 160.846416 180.31392 152.253216 
L 180.31392 128.535984 
Q 180.31392 119.942784 164.68992 119.942784 
L 43.44768 119.942784 
Q 27.82368 119.942784 27.82368 128.535984 
L 27.82368 152.253216 
Q 27.82368 160.846416 43.44768 160.846416 
z
" clip-path="url(#p8fb7ec1144)" style="fill: #eaf2fb; stroke: #8bb7dd; stroke-width: 1.2; stroke-linejoin: miter"/>
   </g>
   <g id="patch_4">
    <path d="M 43.44768 205.531056 
L 164.68992 205.531056 
Q 180.31392 205.531056 180.31392 196.937856 
L 180.31392 173.220624 
Q 180.31392 164.627424 164.68992 164.627424 
L 43.44768 164.627424 
Q 27.82368 164.627424 27.82368 173.220624 
L 27.82368 196.937856 
Q 27.82368 205.531056 43.44768 205.531056 
z
" clip-path="url(#p8fb7ec1144)" style="fill: #eaf2fb; stroke: #8bb7dd; stroke-width: 1.2; stroke-linejoin: miter"/>
   </g>
   <g id="patch_5">
    <path d="M 43.44768 284.588496 
L 164.68992 284.588496 
Q 180.31392 284.588496 180.31392 275.995296 
L 180.31392 238.528944 
Q 180.31392 229.935744 164.68992 229.935744 
L 43.44768 229.935744 
Q 27.82368 229.935744 27.82368 238.528944 
L 27.82368 275.995296 
Q 27.82368 284.588496 43.44768 284.588496 
z
" clip-path="url(#p8fb7ec1144)" style="fill: #f8fbff; stroke: #d9e0e8; stroke-width: 1.2; stroke-linejoin: miter"/>
   </g>
   <g id="patch_6">
    <path d="M 43.44768 336.147696 
L 164.68992 336.147696 
Q 180.31392 336.147696 180.31392 327.554496 
L 180.31392 296.962704 
Q 180.31392 288.369504 164.68992 288.369504 
L 43.44768 288.369504 
Q 27.82368 288.369504 27.82368 296.962704 
L 27.82368 327.554496 
Q 27.82368 336.147696 43.44768 336.147696 
z
" clip-path="url(#p8fb7ec1144)" style="fill: #f8fbff; stroke: #d9e0e8; stroke-width: 1.2; stroke-linejoin: miter"/>
   </g>
   <g id="patch_7">
    <path d="M 237.18528 126.473616 
L 370.92672 126.473616 
Q 386.55072 126.473616 386.55072 117.880416 
L 386.55072 89.007264 
Q 386.55072 80.414064 370.92672 80.414064 
L 237.18528 80.414064 
Q 221.56128 80.414064 221.56128 89.007264 
L 221.56128 117.880416 
Q 221.56128 126.473616 237.18528 126.473616 
z
" clip-path="url(#p8fb7ec1144)" style="fill: #e8f5ef; stroke: #4c9a78; stroke-width: 1.2; stroke-linejoin: miter"/>
   </g>
   <g id="patch_8">
    <path d="M 237.18528 181.470096 
L 370.92672 181.470096 
Q 386.55072 181.470096 386.55072 172.876896 
L 386.55072 140.566464 
Q 386.55072 131.973264 370.92672 131.973264 
L 237.18528 131.973264 
Q 221.56128 131.973264 221.56128 140.566464 
L 221.56128 172.876896 
Q 221.56128 181.470096 237.18528 181.470096 
z
" clip-path="url(#p8fb7ec1144)" style="fill: #e8f5ef; stroke: #4c9a78; stroke-width: 1.2; stroke-linejoin: miter"/>
   </g>
   <g id="patch_9">
    <path d="M 237.18528 236.466576 
L 370.92672 236.466576 
Q 386.55072 236.466576 386.55072 227.873376 
L 386.55072 195.562944 
Q 386.55072 186.969744 370.92672 186.969744 
L 237.18528 186.969744 
Q 221.56128 186.969744 221.56128 195.562944 
L 221.56128 227.873376 
Q 221.56128 236.466576 237.18528 236.466576 
z
" clip-path="url(#p8fb7ec1144)" style="fill: #e8f5ef; stroke: #4c9a78; stroke-width: 1.2; stroke-linejoin: miter"/>
   </g>
   <g id="patch_10">
    <path d="M 237.18528 291.463056 
L 370.92672 291.463056 
Q 386.55072 291.463056 386.55072 282.869856 
L 386.55072 250.559424 
Q 386.55072 241.966224 370.92672 241.966224 
L 237.18528 241.966224 
Q 221.56128 241.966224 221.56128 250.559424 
L 221.56128 282.869856 
Q 221.56128 291.463056 237.18528 291.463056 
z
" clip-path="url(#p8fb7ec1144)" style="fill: #e8f5ef; stroke: #4c9a78; stroke-width: 1.2; stroke-linejoin: miter"/>
   </g>
   <g id="patch_11">
    <path d="M 237.18528 336.147696 
L 370.92672 336.147696 
Q 386.55072 336.147696 386.55072 327.554496 
L 386.55072 310.711824 
Q 386.55072 302.118624 370.92672 302.118624 
L 237.18528 302.118624 
Q 221.56128 302.118624 221.56128 310.711824 
L 221.56128 327.554496 
Q 221.56128 336.147696 237.18528 336.147696 
z
" clip-path="url(#p8fb7ec1144)" style="fill: #ffffff; stroke: #4c9a78; stroke-width: 1.2; stroke-linejoin: miter"/>
   </g>
   <g id="patch_12">
    <path d="M 443.42208 136.785456 
L 589.66272 136.785456 
Q 605.28672 136.785456 605.28672 128.192256 
L 605.28672 92.444544 
Q 605.28672 83.851344 589.66272 83.851344 
L 443.42208 83.851344 
Q 427.79808 83.851344 427.79808 92.444544 
L 427.79808 128.192256 
Q 427.79808 136.785456 443.42208 136.785456 
z
" clip-path="url(#p8fb7ec1144)" style="fill: #fff1df; stroke: #d59045; stroke-width: 1.2; stroke-linejoin: miter"/>
   </g>
   <g id="patch_13">
    <path d="M 443.42208 205.531056 
L 589.66272 205.531056 
Q 605.28672 205.531056 605.28672 196.937856 
L 605.28672 150.878304 
Q 605.28672 142.285104 589.66272 142.285104 
L 443.42208 142.285104 
Q 427.79808 142.285104 427.79808 150.878304 
L 427.79808 196.937856 
Q 427.79808 205.531056 443.42208 205.531056 
z
" clip-path="url(#p8fb7ec1144)" style="fill: #fff1df; stroke: #d59045; stroke-width: 1.2; stroke-linejoin: miter"/>
   </g>
   <g id="patch_14">
    <path d="M 443.42208 270.839376 
L 589.66272 270.839376 
Q 605.28672 270.839376 605.28672 262.246176 
L 605.28672 226.498464 
Q 605.28672 217.905264 589.66272 217.905264 
L 443.42208 217.905264 
Q 427.79808 217.905264 427.79808 226.498464 
L 427.79808 262.246176 
Q 427.79808 270.839376 443.42208 270.839376 
z
" clip-path="url(#p8fb7ec1144)" style="fill: #fffaf3; stroke: #d59045; stroke-width: 1.2; stroke-linejoin: miter"/>
   </g>
   <g id="patch_15">
    <path d="M 443.42208 336.147696 
L 477.16992 336.147696 
Q 492.79392 336.147696 492.79392 327.554496 
L 492.79392 310.711824 
Q 492.79392 302.118624 477.16992 302.118624 
L 443.42208 302.118624 
Q 427.79808 302.118624 427.79808 310.711824 
L 427.79808 327.554496 
Q 427.79808 336.147696 443.42208 336.147696 
z
" clip-path="url(#p8fb7ec1144)" style="fill: #f1ecfa; stroke: #8e77b5; stroke-width: 1.2; stroke-linejoin: miter"/>
   </g>
   <g id="patch_16">
    <path d="M 499.66848 336.147696 
L 536.54112 336.147696 
Q 552.16512 336.147696 552.16512 327.554496 
L 552.16512 310.711824 
Q 552.16512 302.118624 536.54112 302.118624 
L 499.66848 302.118624 
Q 484.04448 302.118624 484.04448 310.711824 
L 484.04448 327.554496 
Q 484.04448 336.147696 499.66848 336.147696 
z
" clip-path="url(#p8fb7ec1144)" style="fill: #f1ecfa; stroke: #8e77b5; stroke-width: 1.2; stroke-linejoin: miter"/>
   </g>
   <g id="patch_17">
    <path d="M 559.03968 336.147696 
L 595.91232 336.147696 
Q 611.53632 336.147696 611.53632 327.554496 
L 611.53632 310.711824 
Q 611.53632 302.118624 595.91232 302.118624 
L 559.03968 302.118624 
Q 543.41568 302.118624 543.41568 310.711824 
L 543.41568 327.554496 
Q 543.41568 336.147696 559.03968 336.147696 
z
" clip-path="url(#p8fb7ec1144)" style="fill: #f1ecfa; stroke: #8e77b5; stroke-width: 1.2; stroke-linejoin: miter"/>
   </g>
   <g id="patch_18">
    <path d="M 176.711093 98.09258 
Q 200.597602 124.211341 223.57868 149.340055 
" clip-path="url(#p8fb7ec1144)" style="fill: none; stroke: #8bb7dd; stroke-width: 1.2; stroke-linecap: round"/>
    <path d="M 222.355078 145.038567 
L 223.57868 149.340055 
L 219.403328 147.738044 
z
" clip-path="url(#p8fb7ec1144)" style="fill: #8bb7dd; stroke: #8bb7dd; stroke-width: 1.2; stroke-linecap: round"/>
   </g>
   <g id="patch_19">
    <path d="M 177.601844 141.272067 
Q 200.449438 146.807169 221.99311 152.02638 
" clip-path="url(#p8fb7ec1144)" style="fill: none; stroke: #8bb7dd; stroke-width: 1.2; stroke-linecap: round"/>
    <path d="M 218.576467 149.140803 
L 221.99311 152.02638 
L 217.634663 153.028348 
z
" clip-path="url(#p8fb7ec1144)" style="fill: #8bb7dd; stroke: #8bb7dd; stroke-width: 1.2; stroke-linecap: round"/>
   </g>
   <g id="patch_20">
    <path d="M 177.249388 183.692181 
Q 200.509315 169.528547 222.623333 156.06269 
" clip-path="url(#p8fb7ec1144)" style="fill: none; stroke: #8bb7dd; stroke-width: 1.2; stroke-linecap: round"/>
    <path d="M 218.166708 156.434838 
L 222.623333 156.06269 
L 220.247076 159.851278 
z
" clip-path="url(#p8fb7ec1144)" style="fill: #8bb7dd; stroke: #8bb7dd; stroke-width: 1.2; stroke-linecap: round"/>
   </g>
   <g id="patch_21">
    <path d="M 106.618436 278.878778 
Q 179.564711 233.14559 224.377174 161.26539 
" clip-path="url(#p8fb7ec1144)" style="fill: none; stroke: #8bb7dd; stroke-width: 1.2; stroke-linecap: round"/>
    <path d="M 220.563814 163.601688 
L 224.377174 161.26539 
L 223.958196 165.717856 
z
" clip-path="url(#p8fb7ec1144)" style="fill: #8bb7dd; stroke: #8bb7dd; stroke-width: 1.2; stroke-linecap: round"/>
   </g>
   <g id="patch_22">
    <path d="M 106.313589 304.251862 
Q 176.856592 241.366612 224.46766 161.316873 
" clip-path="url(#p8fb7ec1144)" style="fill: none; stroke: #8bb7dd; stroke-width: 1.2; stroke-linecap: round"/>
    <path d="M 220.703976 163.732382 
L 224.46766 161.316873 
L 224.141857 165.777126 
z
" clip-path="url(#p8fb7ec1144)" style="fill: #8bb7dd; stroke: #8bb7dd; stroke-width: 1.2; stroke-linecap: round"/>
   </g>
   <g id="patch_23">
    <path d="M 304.056 125.351381 
Q 304.056 128.20956 304.056 129.726097 
" clip-path="url(#p8fb7ec1144)" style="fill: none; stroke: #4c9a78; stroke-width: 1.2; stroke-linecap: round"/>
    <path d="M 306.056 125.726097 
L 304.056 129.726097 
L 302.056 125.726097 
z
" clip-path="url(#p8fb7ec1144)" style="fill: #4c9a78; stroke: #4c9a78; stroke-width: 1.2; stroke-linecap: round"/>
   </g>
   <g id="patch_24">
    <path d="M 304.056 180.347861 
Q 304.056 183.20604 304.056 184.722577 
" clip-path="url(#p8fb7ec1144)" style="fill: none; stroke: #4c9a78; stroke-width: 1.2; stroke-linecap: round"/>
    <path d="M 306.056 180.722577 
L 304.056 184.722577 
L 302.056 180.722577 
z
" clip-path="url(#p8fb7ec1144)" style="fill: #4c9a78; stroke: #4c9a78; stroke-width: 1.2; stroke-linecap: round"/>
   </g>
   <g id="patch_25">
    <path d="M 304.056 235.344341 
Q 304.056 238.20252 304.056 239.719057 
" clip-path="url(#p8fb7ec1144)" style="fill: none; stroke: #4c9a78; stroke-width: 1.2; stroke-linecap: round"/>
    <path d="M 306.056 235.719057 
L 304.056 239.719057 
L 302.056 235.719057 
z
" clip-path="url(#p8fb7ec1144)" style="fill: #4c9a78; stroke: #4c9a78; stroke-width: 1.2; stroke-linecap: round"/>
   </g>
   <g id="patch_26">
    <path d="M 304.056 290.340485 
Q 304.056 295.947828 304.056 300.213529 
" clip-path="url(#p8fb7ec1144)" style="fill: none; stroke: #4c9a78; stroke-width: 1.2; stroke-linecap: round"/>
    <path d="M 306.056 296.213529 
L 304.056 300.213529 
L 302.056 296.213529 
z
" clip-path="url(#p8fb7ec1144)" style="fill: #4c9a78; stroke: #4c9a78; stroke-width: 1.2; stroke-linecap: round"/>
   </g>
   <g id="patch_27">
    <path d="M 382.860919 154.427874 
Q 403.749045 129.992513 429.551609 113.202186 
" clip-path="url(#p8fb7ec1144)" style="fill: none; stroke: #2f78a8; stroke-width: 1.2; stroke-linecap: round"/>
    <path d="M 425.108114 113.707511 
L 429.551609 113.202186 
L 427.289771 117.060177 
z
" clip-path="url(#p8fb7ec1144)" style="fill: #2f78a8; stroke: #2f78a8; stroke-width: 1.2; stroke-linecap: round"/>
   </g>
   <g id="patch_28">
    <path d="M 516.5424 135.663221 
Q 516.5424 138.5214 516.5424 140.037937 
" clip-path="url(#p8fb7ec1144)" style="fill: none; stroke: #d59045; stroke-width: 1.2; stroke-linecap: round"/>
    <path d="M 518.5424 136.037937 
L 516.5424 140.037937 
L 514.5424 136.037937 
z
" clip-path="url(#p8fb7ec1144)" style="fill: #d59045; stroke: #d59045; stroke-width: 1.2; stroke-linecap: round"/>
   </g>
   <g id="patch_29">
    <path d="M 516.5424 204.405464 
Q 516.5424 210.702917 516.5424 215.658728 
" clip-path="url(#p8fb7ec1144)" style="fill: none; stroke: #d59045; stroke-width: 1.2; stroke-linecap: round"/>
    <path d="M 518.5424 211.658728 
L 516.5424 215.658728 
L 514.5424 211.658728 
z
" clip-path="url(#p8fb7ec1144)" style="fill: #d59045; stroke: #d59045; stroke-width: 1.2; stroke-linecap: round"/>
   </g>
   <g id="patch_30">
    <path d="M 516.5424 269.715924 
Q 516.5424 285.634353 516.5424 300.21114 
" clip-path="url(#p8fb7ec1144)" style="fill: none; stroke: #8e77b5; stroke-width: 1.2; stroke-linecap: round"/>
    <path d="M 518.5424 296.21114 
L 516.5424 300.21114 
L 514.5424 296.21114 
z
" clip-path="url(#p8fb7ec1144)" style="fill: #8e77b5; stroke: #8e77b5; stroke-width: 1.2; stroke-linecap: round"/>
   </g>
   <g id="text_1">
    <text style="font-weight: 700; font-size: 12px; font-family: 'Arial', 'Helvetica', 'DejaVu Sans', sans-serif; text-anchor: start; fill: #1f2933" x="25.9488" y="22.33548" transform="rotate(-0 25.9488 22.33548)">Figure 6. RMCT controlled vocabulary, thesaurus and company profile construction</text>
   </g>
   <g id="text_2">
    <text style="font-size: 8.5px; font-family: 'Arial', 'Helvetica', 'DejaVu Sans', sans-serif; text-anchor: start; fill: #687385" x="25.9488" y="35.178975" transform="rotate(-0 25.9488 35.178975)">Heterogeneous public website expressions are normalised into searchable capability labels and aggregated into firm-level profiles.</text>
   </g>
   <g id="text_3">
    <text style="font-weight: 700; font-size: 9px; font-family: 'Arial', 'Helvetica', 'DejaVu Sans', sans-serif; text-anchor: start; fill: #1f2933" x="41.5728" y="62.810809" transform="rotate(-0 41.5728 62.810809)">Input term evidence</text>
   </g>
   <g id="text_4">
    <text style="font-weight: 700; font-size: 9px; font-family: 'Arial', 'Helvetica', 'DejaVu Sans', sans-serif; text-anchor: start; fill: #1f2933" x="235.3104" y="62.80659" transform="rotate(-0 235.3104 62.80659)">Controlled vocabulary / thesaurus</text>
   </g>
   <g id="text_5">
    <text style="font-weight: 700; font-size: 9px; font-family: 'Arial', 'Helvetica', 'DejaVu Sans', sans-serif; text-anchor: start; fill: #1f2933" x="447.7968" y="62.80659" transform="rotate(-0 447.7968 62.80659)">Company capability profile</text>
   </g>
   <g id="text_6">
    <text style="font-weight: 700; font-size: 8px; font-family: 'Arial', 'Helvetica', 'DejaVu Sans', sans-serif; fill: #1f2933" transform="translate(70.0613 94.209218)">Literature-derived</text>
    <text style="font-weight: 700; font-size: 8px; font-family: 'Arial', 'Helvetica', 'DejaVu Sans', sans-serif; fill: #1f2933" transform="translate(82.946925 102.843202)">seed terms</text>
   </g>
   <g id="text_7">
    <text style="font-weight: 700; font-size: 8px; font-family: 'Arial', 'Helvetica', 'DejaVu Sans', sans-serif; fill: #1f2933" transform="translate(70.1363 138.893858)">Website-validated</text>
    <text style="font-weight: 700; font-size: 8px; font-family: 'Arial', 'Helvetica', 'DejaVu Sans', sans-serif; fill: #1f2933" transform="translate(82.946925 147.527842)">seed terms</text>
   </g>
   <g id="text_8">
    <text style="font-weight: 700; font-size: 8px; font-family: 'Arial', 'Helvetica', 'DejaVu Sans', sans-serif; fill: #1f2933" transform="translate(64.503175 183.578498)">New website-derived</text>
    <text style="font-weight: 700; font-size: 8px; font-family: 'Arial', 'Helvetica', 'DejaVu Sans', sans-serif; fill: #1f2933" transform="translate(61.164425 191.417482)">capability expressions</text>
   </g>
   <g id="text_9">
    <text style="font-weight: 700; font-size: 8px; font-family: 'Arial', 'Helvetica', 'DejaVu Sans', sans-serif; text-anchor: start; fill: #1f2933" x="39.69792" y="227.54103" transform="rotate(-0 39.69792 227.54103)">Example website expressions</text>
   </g>
   <g id="text_10">
    <text style="font-size: 7.6px; font-family: 'Arial', 'Helvetica', 'DejaVu Sans', sans-serif; fill: #1f2933" transform="translate(86.372081 251.782179)">"ISO9001"</text>
    <text style="font-size: 7.6px; font-family: 'Arial', 'Helvetica', 'DejaVu Sans', sans-serif; fill: #1f2933" transform="translate(85.316394 259.984464)">"ISO 9001"</text>
    <text style="font-size: 7.6px; font-family: 'Arial', 'Helvetica', 'DejaVu Sans', sans-serif; fill: #1f2933" transform="translate(54.063175 267.384593)">"quality management system"</text>
   </g>
   <g id="text_11">
    <text style="font-size: 7.6px; font-family: 'Arial', 'Helvetica', 'DejaVu Sans', sans-serif; fill: #1f2933" transform="translate(74.762487 306.022815)">"CNC machining"</text>
    <text style="font-size: 7.6px; font-family: 'Arial', 'Helvetica', 'DejaVu Sans', sans-serif; fill: #1f2933" transform="translate(67.788894 314.178787)">"precision machining"</text>
    <text style="font-size: 7.6px; font-family: 'Arial', 'Helvetica', 'DejaVu Sans', sans-serif; fill: #1f2933" transform="translate(73.118988 322.427385)">"milling" / "turning"</text>
   </g>
   <g id="text_12">
    <text style="font-weight: 700; font-size: 8px; font-family: 'Arial', 'Helvetica', 'DejaVu Sans', sans-serif; fill: #1f2933" transform="translate(276.0435 101.991848)">Preferred label</text>
    <text style="font-weight: 700; font-size: 8px; font-family: 'Arial', 'Helvetica', 'DejaVu Sans', sans-serif; fill: #1f2933" transform="translate(250.931 110.625832)">standard classification term</text>
   </g>
   <g id="text_13">
    <text style="font-size: 7.8px; font-family: 'Arial', 'Helvetica', 'DejaVu Sans', sans-serif; fill: #1f2933" transform="translate(274.358109 151.049389)">Alternative labels</text>
    <text style="font-size: 7.8px; font-family: 'Arial', 'Helvetica', 'DejaVu Sans', sans-serif; fill: #1f2933" transform="translate(249.646125 158.692399)">spelling variants, abbreviations,</text>
    <text style="font-size: 7.8px; font-family: 'Arial', 'Helvetica', 'DejaVu Sans', sans-serif; fill: #1f2933" transform="translate(260.271187 167.110534)">synonymous expressions</text>
   </g>
   <g id="text_14">
    <text style="font-size: 7.8px; font-family: 'Arial', 'Helvetica', 'DejaVu Sans', sans-serif; fill: #1f2933" transform="translate(271.980328 209.479811)">Narrower category</text>
    <text style="font-size: 7.8px; font-family: 'Arial', 'Helvetica', 'DejaVu Sans', sans-serif; fill: #1f2933" transform="translate(242.921062 217.909524)">31 operational capability categories</text>
   </g>
   <g id="text_15">
    <text style="font-size: 7.8px; font-family: 'Arial', 'Helvetica', 'DejaVu Sans', sans-serif; fill: #1f2933" transform="translate(259.046953 265.297119)">Broader RMCT dimension</text>
    <text style="font-size: 7.8px; font-family: 'Arial', 'Helvetica', 'DejaVu Sans', sans-serif; fill: #1f2933" transform="translate(247.052016 272.941957)">8 first-level capability dimensions</text>
   </g>
   <g id="text_16">
    <text style="font-weight: 700; font-size: 7.5px; font-family: 'Arial', 'Helvetica', 'DejaVu Sans', sans-serif; text-anchor: middle; fill: #1f2933" x="304.056" y="321.073785" transform="rotate(-0 304.056 321.073785)">433 preferred labels  |  486 searchable expressions</text>
   </g>
   <g id="text_17">
    <text style="font-size: 7.8px; font-family: 'Arial', 'Helvetica', 'DejaVu Sans', sans-serif; fill: #1f2933" transform="translate(480.340041 108.900879)">Cleaned website text</text>
    <text style="font-size: 7.8px; font-family: 'Arial', 'Helvetica', 'DejaVu Sans', sans-serif; fill: #1f2933" transform="translate(437.310244 116.545717)">matched against preferred + alternative labels</text>
   </g>
   <g id="text_18">
    <text style="font-weight: 700; font-size: 7.7px; font-family: 'Arial', 'Helvetica', 'DejaVu Sans', sans-serif; fill: #1f2933" transform="translate(466.695127 163.43514)">Firm-level capability profile</text>
    <text style="font-weight: 700; font-size: 7.7px; font-family: 'Arial', 'Helvetica', 'DejaVu Sans', sans-serif; fill: #1f2933" transform="translate(516.5424 169.752975)"/>
    <text style="font-weight: 700; font-size: 7.7px; font-family: 'Arial', 'Helvetica', 'DejaVu Sans', sans-serif; fill: #1f2933" transform="translate(451.502666 180.05556)">Detected labels | RMCT dimensions</text>
    <text style="font-weight: 700; font-size: 7.7px; font-family: 'Arial', 'Helvetica', 'DejaVu Sans', sans-serif; fill: #1f2933" transform="translate(439.721666 188.36577)">Narrower categories | Evidence frequency</text>
   </g>
   <g id="text_19">
    <text style="font-size: 7.8px; font-family: 'Arial', 'Helvetica', 'DejaVu Sans', sans-serif; fill: #1f2933" transform="translate(478.391869 237.972435)">Example profile signal</text>
    <text style="font-size: 7.8px; font-family: 'Arial', 'Helvetica', 'DejaVu Sans', sans-serif; fill: #1f2933" transform="translate(464.950884 246.393008)">CNC machining + ISO 9001 +</text>
    <text style="font-size: 7.8px; font-family: 'Arial', 'Helvetica', 'DejaVu Sans', sans-serif; fill: #1f2933" transform="translate(476.003119 254.744111)">aerospace components</text>
   </g>
   <g id="text_20">
    <text style="font-weight: 700; font-size: 8px; font-family: 'Arial', 'Helvetica', 'DejaVu Sans', sans-serif; text-anchor: start; fill: #1f2933" x="447.7968" y="292.79685" transform="rotate(-0 447.7968 292.79685)">Used in validation and benchmarking</text>
   </g>
   <g id="text_21">
    <text style="font-weight: 700; font-size: 7.2px; font-family: 'Arial', 'Helvetica', 'DejaVu Sans', sans-serif; text-anchor: middle; fill: #1f2933" x="460.296" y="320.99616" transform="rotate(-0 460.296 320.99616)">Coverage</text>
   </g>
   <g id="text_22">
    <text style="font-weight: 700; font-size: 7.1px; font-family: 'Arial', 'Helvetica', 'DejaVu Sans', sans-serif; fill: #1f2933" transform="translate(501.141347 317.138954)">Capability</text>
    <text style="font-weight: 700; font-size: 7.1px; font-family: 'Arial', 'Helvetica', 'DejaVu Sans', sans-serif; fill: #1f2933" transform="translate(500.743081 324.801616)">specificity</text>
   </g>
   <g id="text_23">
    <text style="font-weight: 700; font-size: 7.1px; font-family: 'Arial', 'Helvetica', 'DejaVu Sans', sans-serif; fill: #1f2933" transform="translate(555.378359 317.841189)">Search noise</text>
    <text style="font-weight: 700; font-size: 7.1px; font-family: 'Arial', 'Helvetica', 'DejaVu Sans', sans-serif; fill: #1f2933" transform="translate(561.304641 325.463912)">reduction</text>
   </g>
   <g id="text_24">
    <text style="font-size: 7.2px; font-family: 'Arial', 'Helvetica', 'DejaVu Sans', sans-serif; fill: #2f78a8" transform="translate(385.3008 141.621892)">normalise</text>
    <text style="font-size: 7.2px; font-family: 'Arial', 'Helvetica', 'DejaVu Sans', sans-serif; fill: #2f78a8" transform="translate(385.3008 149.392478)">and link</text>
   </g>
   <g id="text_25">
    <text style="font-size: 7.2px; font-family: 'Arial', 'Helvetica', 'DejaVu Sans', sans-serif; fill: #d59045" transform="translate(397.8 179.791531)">assign to firm</text>
    <text style="font-size: 7.2px; font-family: 'Arial', 'Helvetica', 'DejaVu Sans', sans-serif; fill: #d59045" transform="translate(397.8 188.233742)">when matched</text>
   </g>
  </g>
 </g>
 <defs>
  <clipPath id="p8fb7ec1144">
   <rect x="7.2" y="7.2" width="624.96" height="343.728"/>
  </clipPath>
 </defs>
</svg>
