<?xml version="1.0" encoding="utf-8" standalone="no"?>
<!DOCTYPE svg PUBLIC "-//W3C//DTD SVG 1.1//EN"
  "http://www.w3.org/Graphics/SVG/1.1/DTD/svg11.dtd">
<svg height="328.93985pt" version="1.1" viewBox="0 0 514.866645 328.93985" width="514.866645pt" xmlns="http://www.w3.org/2000/svg" xmlns:xlink="http://www.w3.org/1999/xlink">
 <metadata>
  <rdf:RDF xmlns:cc="http://creativecommons.org/ns#" xmlns:dc="http://purl.org/dc/elements/1.1/" xmlns:rdf="http://www.w3.org/1999/02/22-rdf-syntax-ns#">
   <cc:Work>
    <dc:type rdf:resource="http://purl.org/dc/dcmitype/StillImage"/>
    <dc:date>2026-07-09T01:59:09.283420</dc:date>
    <dc:format>image/svg+xml</dc:format>
    <dc:creator>
     <cc:Agent>
      <dc:title>Matplotlib v3.4.3, https://matplotlib.org/</dc:title>
     </cc:Agent>
    </dc:creator>
   </cc:Work>
  </rdf:RDF>
 </metadata>
 <defs>
  <style type="text/css">*{stroke-linecap:butt;stroke-linejoin:round;}</style>
 </defs>
 <g id="figure_1">
  <g id="patch_1">
   <path d="M 0 328.93985 
L 514.866645 328.93985 
L 514.866645 0 
L 0 0 
z
" style="fill:#ffffff;"/>
  </g>
  <g id="axes_1">
   <g id="patch_2">
    <path clip-path="url(#p22533f88a8)" d="M 37.841252 70.583344 
L 77.421092 70.583344 
Q 80.531492 70.583344 80.531492 68.067376 
L 80.531492 53.348964 
Q 80.531492 50.832996 77.421092 50.832996 
L 37.841252 50.832996 
Q 34.730852 50.832996 34.730852 53.348964 
L 34.730852 68.067376 
Q 34.730852 70.583344 37.841252 70.583344 
z
" style="fill:#ffffff;stroke:#7a6ea8;stroke-linejoin:miter;stroke-width:1.2;"/>
   </g>
   <g id="patch_3">
    <path clip-path="url(#p22533f88a8)" d="M 92.273252 72.47032 
L 213.501092 72.47032 
Q 216.611492 72.47032 216.611492 69.954352 
L 216.611492 51.461988 
Q 216.611492 48.94602 213.501092 48.94602 
L 92.273252 48.94602 
Q 89.162852 48.94602 89.162852 51.461988 
L 89.162852 69.954352 
Q 89.162852 72.47032 92.273252 72.47032 
z
" style="fill:#f5f3fb;stroke:#d7d2ea;stroke-linejoin:miter;stroke-width:1.2;"/>
   </g>
   <g id="patch_4">
    <path clip-path="url(#p22533f88a8)" d="M 339.161252 70.583344 
L 417.621092 70.583344 
Q 420.731492 70.583344 420.731492 68.067376 
L 420.731492 53.348964 
Q 420.731492 50.832996 417.621092 50.832996 
L 339.161252 50.832996 
Q 336.050852 50.832996 336.050852 53.348964 
L 336.050852 68.067376 
Q 336.050852 70.583344 339.161252 70.583344 
z
" style="fill:#edf5fa;stroke:#2f6f9f;stroke-linejoin:miter;stroke-width:1.2;"/>
   </g>
   <g id="patch_5">
    <path clip-path="url(#p22533f88a8)" d="M 220.008091 60.70817 
Q 276.330773 60.70817 331.759027 60.70817 
" style="fill:none;opacity:0.75;stroke:#2f6f9f;stroke-linecap:round;stroke-width:0.8;"/>
    <path clip-path="url(#p22533f88a8)" d="M 328.559027 59.10817 
L 331.759027 60.70817 
L 328.559027 62.30817 
L 328.559027 59.10817 
z
" style="fill:#2f6f9f;opacity:0.75;stroke:#2f6f9f;stroke-linecap:round;stroke-width:0.8;"/>
   </g>
   <g id="patch_6">
    <path clip-path="url(#p22533f88a8)" d="M 37.841252 102.257584 
L 77.421092 102.257584 
Q 80.531492 102.257584 80.531492 99.741616 
L 80.531492 85.023204 
Q 80.531492 82.507236 77.421092 82.507236 
L 37.841252 82.507236 
Q 34.730852 82.507236 34.730852 85.023204 
L 34.730852 99.741616 
Q 34.730852 102.257584 37.841252 102.257584 
z
" style="fill:#ffffff;stroke:#7a6ea8;stroke-linejoin:miter;stroke-width:1.2;"/>
   </g>
   <g id="patch_7">
    <path clip-path="url(#p22533f88a8)" d="M 92.273252 104.14456 
L 213.501092 104.14456 
Q 216.611492 104.14456 216.611492 101.628592 
L 216.611492 83.136228 
Q 216.611492 80.62026 213.501092 80.62026 
L 92.273252 80.62026 
Q 89.162852 80.62026 89.162852 83.136228 
L 89.162852 101.628592 
Q 89.162852 104.14456 92.273252 104.14456 
z
" style="fill:#f5f3fb;stroke:#d7d2ea;stroke-linejoin:miter;stroke-width:1.2;"/>
   </g>
   <g id="patch_8">
    <path clip-path="url(#p22533f88a8)" d="M 339.161252 102.257584 
L 417.621092 102.257584 
Q 420.731492 102.257584 420.731492 99.741616 
L 420.731492 85.023204 
Q 420.731492 82.507236 417.621092 82.507236 
L 339.161252 82.507236 
Q 336.050852 82.507236 336.050852 85.023204 
L 336.050852 99.741616 
Q 336.050852 102.257584 339.161252 102.257584 
z
" style="fill:#edf5fa;stroke:#2f6f9f;stroke-linejoin:miter;stroke-width:1.2;"/>
   </g>
   <g id="patch_9">
    <path clip-path="url(#p22533f88a8)" d="M 220.008091 92.38241 
Q 276.330773 92.38241 331.759027 92.38241 
" style="fill:none;opacity:0.75;stroke:#2f6f9f;stroke-linecap:round;stroke-width:0.8;"/>
    <path clip-path="url(#p22533f88a8)" d="M 328.559027 90.78241 
L 331.759027 92.38241 
L 328.559027 93.98241 
L 328.559027 90.78241 
z
" style="fill:#2f6f9f;opacity:0.75;stroke:#2f6f9f;stroke-linecap:round;stroke-width:0.8;"/>
   </g>
   <g id="patch_10">
    <path clip-path="url(#p22533f88a8)" d="M 37.841252 133.931824 
L 77.421092 133.931824 
Q 80.531492 133.931824 80.531492 131.415856 
L 80.531492 116.697444 
Q 80.531492 114.181476 77.421092 114.181476 
L 37.841252 114.181476 
Q 34.730852 114.181476 34.730852 116.697444 
L 34.730852 131.415856 
Q 34.730852 133.931824 37.841252 133.931824 
z
" style="fill:#ffffff;stroke:#7a6ea8;stroke-linejoin:miter;stroke-width:1.2;"/>
   </g>
   <g id="patch_11">
    <path clip-path="url(#p22533f88a8)" d="M 92.273252 135.8188 
L 213.501092 135.8188 
Q 216.611492 135.8188 216.611492 133.302832 
L 216.611492 114.810468 
Q 216.611492 112.2945 213.501092 112.2945 
L 92.273252 112.2945 
Q 89.162852 112.2945 89.162852 114.810468 
L 89.162852 133.302832 
Q 89.162852 135.8188 92.273252 135.8188 
z
" style="fill:#f5f3fb;stroke:#d7d2ea;stroke-linejoin:miter;stroke-width:1.2;"/>
   </g>
   <g id="patch_12">
    <path clip-path="url(#p22533f88a8)" d="M 339.161252 133.931824 
L 417.621092 133.931824 
Q 420.731492 133.931824 420.731492 131.415856 
L 420.731492 116.697444 
Q 420.731492 114.181476 417.621092 114.181476 
L 339.161252 114.181476 
Q 336.050852 114.181476 336.050852 116.697444 
L 336.050852 131.415856 
Q 336.050852 133.931824 339.161252 133.931824 
z
" style="fill:#edf5fa;stroke:#2f6f9f;stroke-linejoin:miter;stroke-width:1.2;"/>
   </g>
   <g id="patch_13">
    <path clip-path="url(#p22533f88a8)" d="M 220.008091 124.05665 
Q 276.330773 124.05665 331.759027 124.05665 
" style="fill:none;opacity:0.75;stroke:#2f6f9f;stroke-linecap:round;stroke-width:0.8;"/>
    <path clip-path="url(#p22533f88a8)" d="M 328.559027 122.45665 
L 331.759027 124.05665 
L 328.559027 125.65665 
L 328.559027 122.45665 
z
" style="fill:#2f6f9f;opacity:0.75;stroke:#2f6f9f;stroke-linecap:round;stroke-width:0.8;"/>
   </g>
   <g id="patch_14">
    <path clip-path="url(#p22533f88a8)" d="M 37.841252 165.606064 
L 77.421092 165.606064 
Q 80.531492 165.606064 80.531492 163.090096 
L 80.531492 148.371684 
Q 80.531492 145.855716 77.421092 145.855716 
L 37.841252 145.855716 
Q 34.730852 145.855716 34.730852 148.371684 
L 34.730852 163.090096 
Q 34.730852 165.606064 37.841252 165.606064 
z
" style="fill:#ffffff;stroke:#7a6ea8;stroke-linejoin:miter;stroke-width:1.2;"/>
   </g>
   <g id="patch_15">
    <path clip-path="url(#p22533f88a8)" d="M 92.273252 167.49304 
L 213.501092 167.49304 
Q 216.611492 167.49304 216.611492 164.977072 
L 216.611492 146.484708 
Q 216.611492 143.96874 213.501092 143.96874 
L 92.273252 143.96874 
Q 89.162852 143.96874 89.162852 146.484708 
L 89.162852 164.977072 
Q 89.162852 167.49304 92.273252 167.49304 
z
" style="fill:#f5f3fb;stroke:#d7d2ea;stroke-linejoin:miter;stroke-width:1.2;"/>
   </g>
   <g id="patch_16">
    <path clip-path="url(#p22533f88a8)" d="M 339.161252 165.606064 
L 417.621092 165.606064 
Q 420.731492 165.606064 420.731492 163.090096 
L 420.731492 148.371684 
Q 420.731492 145.855716 417.621092 145.855716 
L 339.161252 145.855716 
Q 336.050852 145.855716 336.050852 148.371684 
L 336.050852 163.090096 
Q 336.050852 165.606064 339.161252 165.606064 
z
" style="fill:#edf5fa;stroke:#2f6f9f;stroke-linejoin:miter;stroke-width:1.2;"/>
   </g>
   <g id="patch_17">
    <path clip-path="url(#p22533f88a8)" d="M 220.008091 155.73089 
Q 276.330773 155.73089 331.759027 155.73089 
" style="fill:none;opacity:0.75;stroke:#2f6f9f;stroke-linecap:round;stroke-width:0.8;"/>
    <path clip-path="url(#p22533f88a8)" d="M 328.559027 154.13089 
L 331.759027 155.73089 
L 328.559027 157.33089 
L 328.559027 154.13089 
z
" style="fill:#2f6f9f;opacity:0.75;stroke:#2f6f9f;stroke-linecap:round;stroke-width:0.8;"/>
   </g>
   <g id="patch_18">
    <path clip-path="url(#p22533f88a8)" d="M 37.841252 197.280304 
L 77.421092 197.280304 
Q 80.531492 197.280304 80.531492 194.764336 
L 80.531492 180.045924 
Q 80.531492 177.529956 77.421092 177.529956 
L 37.841252 177.529956 
Q 34.730852 177.529956 34.730852 180.045924 
L 34.730852 194.764336 
Q 34.730852 197.280304 37.841252 197.280304 
z
" style="fill:#ffffff;stroke:#7a6ea8;stroke-linejoin:miter;stroke-width:1.2;"/>
   </g>
   <g id="patch_19">
    <path clip-path="url(#p22533f88a8)" d="M 92.273252 199.16728 
L 213.501092 199.16728 
Q 216.611492 199.16728 216.611492 196.651312 
L 216.611492 178.158948 
Q 216.611492 175.64298 213.501092 175.64298 
L 92.273252 175.64298 
Q 89.162852 175.64298 89.162852 178.158948 
L 89.162852 196.651312 
Q 89.162852 199.16728 92.273252 199.16728 
z
" style="fill:#f5f3fb;stroke:#d7d2ea;stroke-linejoin:miter;stroke-width:1.2;"/>
   </g>
   <g id="patch_20">
    <path clip-path="url(#p22533f88a8)" d="M 339.161252 197.280304 
L 417.621092 197.280304 
Q 420.731492 197.280304 420.731492 194.764336 
L 420.731492 180.045924 
Q 420.731492 177.529956 417.621092 177.529956 
L 339.161252 177.529956 
Q 336.050852 177.529956 336.050852 180.045924 
L 336.050852 194.764336 
Q 336.050852 197.280304 339.161252 197.280304 
z
" style="fill:#edf5fa;stroke:#2f6f9f;stroke-linejoin:miter;stroke-width:1.2;"/>
   </g>
   <g id="patch_21">
    <path clip-path="url(#p22533f88a8)" d="M 220.008091 187.40513 
Q 276.330773 187.40513 331.759027 187.40513 
" style="fill:none;opacity:0.75;stroke:#2f6f9f;stroke-linecap:round;stroke-width:0.8;"/>
    <path clip-path="url(#p22533f88a8)" d="M 328.559027 185.80513 
L 331.759027 187.40513 
L 328.559027 189.00513 
L 328.559027 185.80513 
z
" style="fill:#2f6f9f;opacity:0.75;stroke:#2f6f9f;stroke-linecap:round;stroke-width:0.8;"/>
   </g>
   <g id="patch_22">
    <path clip-path="url(#p22533f88a8)" d="M 37.841252 228.954544 
L 77.421092 228.954544 
Q 80.531492 228.954544 80.531492 226.438576 
L 80.531492 211.720164 
Q 80.531492 209.204196 77.421092 209.204196 
L 37.841252 209.204196 
Q 34.730852 209.204196 34.730852 211.720164 
L 34.730852 226.438576 
Q 34.730852 228.954544 37.841252 228.954544 
z
" style="fill:#ffffff;stroke:#7a6ea8;stroke-linejoin:miter;stroke-width:1.2;"/>
   </g>
   <g id="patch_23">
    <path clip-path="url(#p22533f88a8)" d="M 92.273252 230.84152 
L 213.501092 230.84152 
Q 216.611492 230.84152 216.611492 228.325552 
L 216.611492 209.833188 
Q 216.611492 207.31722 213.501092 207.31722 
L 92.273252 207.31722 
Q 89.162852 207.31722 89.162852 209.833188 
L 89.162852 228.325552 
Q 89.162852 230.84152 92.273252 230.84152 
z
" style="fill:#f5f3fb;stroke:#d7d2ea;stroke-linejoin:miter;stroke-width:1.2;"/>
   </g>
   <g id="patch_24">
    <path clip-path="url(#p22533f88a8)" d="M 339.161252 228.954544 
L 417.621092 228.954544 
Q 420.731492 228.954544 420.731492 226.438576 
L 420.731492 211.720164 
Q 420.731492 209.204196 417.621092 209.204196 
L 339.161252 209.204196 
Q 336.050852 209.204196 336.050852 211.720164 
L 336.050852 226.438576 
Q 336.050852 228.954544 339.161252 228.954544 
z
" style="fill:#edf5fa;stroke:#2f6f9f;stroke-linejoin:miter;stroke-width:1.2;"/>
   </g>
   <g id="patch_25">
    <path clip-path="url(#p22533f88a8)" d="M 220.008091 219.07937 
Q 276.330773 219.07937 331.759027 219.07937 
" style="fill:none;opacity:0.75;stroke:#2f6f9f;stroke-linecap:round;stroke-width:0.8;"/>
    <path clip-path="url(#p22533f88a8)" d="M 328.559027 217.47937 
L 331.759027 219.07937 
L 328.559027 220.67937 
L 328.559027 217.47937 
z
" style="fill:#2f6f9f;opacity:0.75;stroke:#2f6f9f;stroke-linecap:round;stroke-width:0.8;"/>
   </g>
   <g id="patch_26">
    <path clip-path="url(#p22533f88a8)" d="M 37.841252 260.628784 
L 77.421092 260.628784 
Q 80.531492 260.628784 80.531492 258.112816 
L 80.531492 243.394404 
Q 80.531492 240.878436 77.421092 240.878436 
L 37.841252 240.878436 
Q 34.730852 240.878436 34.730852 243.394404 
L 34.730852 258.112816 
Q 34.730852 260.628784 37.841252 260.628784 
z
" style="fill:#ffffff;stroke:#7a6ea8;stroke-linejoin:miter;stroke-width:1.2;"/>
   </g>
   <g id="patch_27">
    <path clip-path="url(#p22533f88a8)" d="M 92.273252 262.51576 
L 213.501092 262.51576 
Q 216.611492 262.51576 216.611492 259.999792 
L 216.611492 241.507428 
Q 216.611492 238.99146 213.501092 238.99146 
L 92.273252 238.99146 
Q 89.162852 238.99146 89.162852 241.507428 
L 89.162852 259.999792 
Q 89.162852 262.51576 92.273252 262.51576 
z
" style="fill:#f5f3fb;stroke:#d7d2ea;stroke-linejoin:miter;stroke-width:1.2;"/>
   </g>
   <g id="patch_28">
    <path clip-path="url(#p22533f88a8)" d="M 339.161252 260.628784 
L 417.621092 260.628784 
Q 420.731492 260.628784 420.731492 258.112816 
L 420.731492 243.394404 
Q 420.731492 240.878436 417.621092 240.878436 
L 339.161252 240.878436 
Q 336.050852 240.878436 336.050852 243.394404 
L 336.050852 258.112816 
Q 336.050852 260.628784 339.161252 260.628784 
z
" style="fill:#edf5fa;stroke:#2f6f9f;stroke-linejoin:miter;stroke-width:1.2;"/>
   </g>
   <g id="patch_29">
    <path clip-path="url(#p22533f88a8)" d="M 220.008091 250.75361 
Q 276.330773 250.75361 331.759027 250.75361 
" style="fill:none;opacity:0.75;stroke:#2f6f9f;stroke-linecap:round;stroke-width:0.8;"/>
    <path clip-path="url(#p22533f88a8)" d="M 328.559027 249.15361 
L 331.759027 250.75361 
L 328.559027 252.35361 
L 328.559027 249.15361 
z
" style="fill:#2f6f9f;opacity:0.75;stroke:#2f6f9f;stroke-linecap:round;stroke-width:0.8;"/>
   </g>
   <g id="patch_30">
    <path clip-path="url(#p22533f88a8)" d="M 37.841252 292.303024 
L 77.421092 292.303024 
Q 80.531492 292.303024 80.531492 289.787056 
L 80.531492 275.068644 
Q 80.531492 272.552676 77.421092 272.552676 
L 37.841252 272.552676 
Q 34.730852 272.552676 34.730852 275.068644 
L 34.730852 289.787056 
Q 34.730852 292.303024 37.841252 292.303024 
z
" style="fill:#ffffff;stroke:#7a6ea8;stroke-linejoin:miter;stroke-width:1.2;"/>
   </g>
   <g id="patch_31">
    <path clip-path="url(#p22533f88a8)" d="M 92.273252 294.19 
L 213.501092 294.19 
Q 216.611492 294.19 216.611492 291.674032 
L 216.611492 273.181668 
Q 216.611492 270.6657 213.501092 270.6657 
L 92.273252 270.6657 
Q 89.162852 270.6657 89.162852 273.181668 
L 89.162852 291.674032 
Q 89.162852 294.19 92.273252 294.19 
z
" style="fill:#f5f3fb;stroke:#d7d2ea;stroke-linejoin:miter;stroke-width:1.2;"/>
   </g>
   <g id="patch_32">
    <path clip-path="url(#p22533f88a8)" d="M 339.161252 292.303024 
L 417.621092 292.303024 
Q 420.731492 292.303024 420.731492 289.787056 
L 420.731492 275.068644 
Q 420.731492 272.552676 417.621092 272.552676 
L 339.161252 272.552676 
Q 336.050852 272.552676 336.050852 275.068644 
L 336.050852 289.787056 
Q 336.050852 292.303024 339.161252 292.303024 
z
" style="fill:#edf5fa;stroke:#2f6f9f;stroke-linejoin:miter;stroke-width:1.2;"/>
   </g>
   <g id="patch_33">
    <path clip-path="url(#p22533f88a8)" d="M 220.008091 282.42785 
Q 276.330773 282.42785 331.759027 282.42785 
" style="fill:none;opacity:0.75;stroke:#2f6f9f;stroke-linecap:round;stroke-width:0.8;"/>
    <path clip-path="url(#p22533f88a8)" d="M 328.559027 280.82785 
L 331.759027 282.42785 
L 328.559027 284.02785 
L 328.559027 280.82785 
z
" style="fill:#2f6f9f;opacity:0.75;stroke:#2f6f9f;stroke-linecap:round;stroke-width:0.8;"/>
   </g>
   <g id="patch_34">
    <path clip-path="url(#p22533f88a8)" d="M 37.841252 313.374256 
L 213.501092 313.374256 
Q 216.611492 313.374256 216.611492 310.858288 
L 216.611492 297.712356 
Q 216.611492 295.196388 213.501092 295.196388 
L 37.841252 295.196388 
Q 34.730852 295.196388 34.730852 297.712356 
L 34.730852 310.858288 
Q 34.730852 313.374256 37.841252 313.374256 
z
" style="fill:#ffffff;stroke:#c6cbd2;stroke-linejoin:miter;stroke-width:1.2;"/>
   </g>
   <g id="patch_35">
    <path clip-path="url(#p22533f88a8)" d="M 302.225252 313.374256 
L 450.669092 313.374256 
Q 453.779492 313.374256 453.779492 310.858288 
L 453.779492 297.712356 
Q 453.779492 295.196388 450.669092 295.196388 
L 302.225252 295.196388 
Q 299.114852 295.196388 299.114852 297.712356 
L 299.114852 310.858288 
Q 299.114852 313.374256 302.225252 313.374256 
z
" style="fill:#ffffff;stroke:#c6cbd2;stroke-linejoin:miter;stroke-width:1.2;"/>
   </g>
   <g id="patch_36">
    <path clip-path="url(#p22533f88a8)" d="M 220.010583 304.128074 
Q 257.864536 304.128074 294.935866 304.128074 
" style="fill:none;stroke:#a6b0bb;stroke-linecap:round;stroke-width:0.7;"/>
    <path clip-path="url(#p22533f88a8)" d="M 292.135866 302.728074 
L 294.935866 304.128074 
L 292.135866 305.528074 
L 292.135866 302.728074 
z
" style="fill:#a6b0bb;stroke:#a6b0bb;stroke-linecap:round;stroke-width:0.7;"/>
   </g>
   <g id="text_1">
    <text style="fill:#1b2430;font-family:Arial;font-size:11px;font-stretch:normal;font-style:normal;font-weight:bold;text-anchor:start;" transform="rotate(-0, 25.555172, 15.10625)" x="25.555172" y="15.10625">Figure 3. Literature-derived capability dimension construction</text>
   </g>
   <g id="text_2">
    <text style="fill:#7a6ea8;font-family:Arial;font-size:8px;font-stretch:normal;font-style:normal;font-weight:bold;text-anchor:middle;" transform="rotate(-0, 57.631172, 62.78192)" x="57.631172" y="62.78192">C1</text>
   </g>
   <g id="text_3">
    <text style="fill:#1b2430;font-family:Arial;font-size:7.2px;font-stretch:normal;font-style:normal;font-weight:normal;" transform="translate(134.675672 59.017886)">Design and</text>
    <text style="fill:#1b2430;font-family:Arial;font-size:7.2px;font-stretch:normal;font-style:normal;font-weight:normal;" transform="translate(127.076859 66.036704)">product lifecycle</text>
   </g>
   <g id="text_4">
    <text style="fill:#1b2430;font-family:Arial;font-size:7.2px;font-stretch:normal;font-style:normal;font-weight:bold;" transform="translate(364.389422 59.107829)">Design /</text>
    <text style="fill:#1b2430;font-family:Arial;font-size:7.2px;font-stretch:normal;font-style:normal;font-weight:bold;" transform="translate(357.590484 66.034511)">Engineering</text>
   </g>
   <g id="text_5">
    <text style="fill:#7a6ea8;font-family:Arial;font-size:8px;font-stretch:normal;font-style:normal;font-weight:bold;text-anchor:middle;" transform="rotate(-0, 57.631172, 94.45616)" x="57.631172" y="94.45616">C2</text>
   </g>
   <g id="text_6">
    <text style="fill:#1b2430;font-family:Arial;font-size:7.2px;font-stretch:normal;font-style:normal;font-weight:normal;" transform="translate(118.875609 90.824257)">Digital transformation</text>
    <text style="fill:#1b2430;font-family:Arial;font-size:7.2px;font-stretch:normal;font-style:normal;font-weight:normal;" transform="translate(128.070797 97.750938)">and automation</text>
   </g>
   <g id="text_7">
    <text style="fill:#1b2430;font-family:Arial;font-size:7.2px;font-stretch:normal;font-style:normal;font-weight:bold;" transform="translate(365.391234 90.829319)">Digital /</text>
    <text style="fill:#1b2430;font-family:Arial;font-size:7.2px;font-stretch:normal;font-style:normal;font-weight:bold;" transform="translate(368.186859 97.756001)">Smart</text>
   </g>
   <g id="text_8">
    <text style="fill:#7a6ea8;font-family:Arial;font-size:8px;font-stretch:normal;font-style:normal;font-weight:bold;text-anchor:middle;" transform="rotate(-0, 57.631172, 126.1304)" x="57.631172" y="126.1304">C3</text>
   </g>
   <g id="text_9">
    <text style="fill:#1b2430;font-family:Arial;font-size:7.2px;font-stretch:normal;font-style:normal;font-weight:normal;" transform="translate(121.742109 122.458559)">Quality, certification</text>
    <text style="fill:#1b2430;font-family:Arial;font-size:7.2px;font-stretch:normal;font-style:normal;font-weight:normal;" transform="translate(135.275297 129.385241)">and testing</text>
   </g>
   <g id="text_10">
    <text style="fill:#1b2430;font-family:Arial;font-size:7.2px;font-stretch:normal;font-style:normal;font-weight:bold;" transform="translate(355.389984 122.413616)">Certification /</text>
    <text style="fill:#1b2430;font-family:Arial;font-size:7.2px;font-stretch:normal;font-style:normal;font-weight:bold;" transform="translate(366.189422 129.337934)">Quality</text>
   </g>
   <g id="text_11">
    <text style="fill:#7a6ea8;font-family:Arial;font-size:8px;font-stretch:normal;font-style:normal;font-weight:bold;text-anchor:middle;" transform="rotate(-0, 57.631172, 157.80464)" x="57.631172" y="157.80464">C4-C6</text>
   </g>
   <g id="text_12">
    <text style="fill:#1b2430;font-family:Arial;font-size:7.2px;font-stretch:normal;font-style:normal;font-weight:normal;" transform="translate(137.283984 154.171049)">Materials:</text>
    <text style="fill:#1b2430;font-family:Arial;font-size:7.2px;font-stretch:normal;font-style:normal;font-weight:normal;" transform="translate(105.676547 161.013356)">ceramics, composites, metals</text>
   </g>
   <g id="text_13">
    <text style="fill:#1b2430;font-family:Arial;font-size:7.2px;font-stretch:normal;font-style:normal;font-weight:bold;text-anchor:middle;" transform="rotate(-0, 378.391172, 157.597265)" x="378.391172" y="157.597265">Material</text>
   </g>
   <g id="text_14">
    <text style="fill:#7a6ea8;font-family:Arial;font-size:8px;font-stretch:normal;font-style:normal;font-weight:bold;text-anchor:middle;" transform="rotate(-0, 57.631172, 189.47888)" x="57.631172" y="189.47888">C7,C10,C11</text>
   </g>
   <g id="text_15">
    <text style="fill:#1b2430;font-family:Arial;font-size:7.2px;font-stretch:normal;font-style:normal;font-weight:normal;" transform="translate(127.076859 185.845289)">Sector contexts:</text>
    <text style="fill:#1b2430;font-family:Arial;font-size:7.2px;font-stretch:normal;font-style:normal;font-weight:normal;" transform="translate(97.665422 192.687596)">electrical, construction, automotive</text>
   </g>
   <g id="text_16">
    <text style="fill:#1b2430;font-family:Arial;font-size:7.2px;font-stretch:normal;font-style:normal;font-weight:bold;" transform="translate(365.187047 185.855414)">Sector /</text>
    <text style="fill:#1b2430;font-family:Arial;font-size:7.2px;font-stretch:normal;font-style:normal;font-weight:bold;" transform="translate(366.786797 192.687596)">Market</text>
   </g>
   <g id="text_17">
    <text style="fill:#7a6ea8;font-family:Arial;font-size:8px;font-stretch:normal;font-style:normal;font-weight:bold;text-anchor:middle;" transform="rotate(-0, 57.631172, 221.15312)" x="57.631172" y="221.15312">C8-C9</text>
   </g>
   <g id="text_18">
    <text style="fill:#1b2430;font-family:Arial;font-size:7.2px;font-stretch:normal;font-style:normal;font-weight:normal;" transform="translate(122.740547 217.479029)">Supplier discovery,</text>
    <text style="fill:#1b2430;font-family:Arial;font-size:7.2px;font-stretch:normal;font-style:normal;font-weight:normal;" transform="translate(107.464734 224.405711)">delivery and responsiveness</text>
   </g>
   <g id="text_19">
    <text style="fill:#1b2430;font-family:Arial;font-size:7.2px;font-stretch:normal;font-style:normal;font-weight:bold;" transform="translate(355.782609 217.436336)">Commercial /</text>
    <text style="fill:#1b2430;font-family:Arial;font-size:7.2px;font-stretch:normal;font-style:normal;font-weight:bold;" transform="translate(366.391359 224.360654)">Supply</text>
   </g>
   <g id="text_20">
    <text style="fill:#7a6ea8;font-family:Arial;font-size:8px;font-stretch:normal;font-style:normal;font-weight:bold;text-anchor:middle;" transform="rotate(-0, 57.631172, 252.82736)" x="57.631172" y="252.82736">C12-C15</text>
   </g>
   <g id="text_21">
    <text style="fill:#1b2430;font-family:Arial;font-size:7.2px;font-stretch:normal;font-style:normal;font-weight:normal;" transform="translate(111.669422 249.107201)">Manufacturing processes:</text>
    <text style="fill:#1b2430;font-family:Arial;font-size:7.2px;font-stretch:normal;font-style:normal;font-weight:normal;" transform="translate(88.659234 256.126019)">forming, fabrication, machining, finishing</text>
   </g>
   <g id="text_22">
    <text style="fill:#1b2430;font-family:Arial;font-size:7.2px;font-stretch:normal;font-style:normal;font-weight:bold;text-anchor:middle;" transform="rotate(-0, 378.391172, 252.619985)" x="378.391172" y="252.619985">Process</text>
   </g>
   <g id="text_23">
    <text style="fill:#7a6ea8;font-family:Arial;font-size:8px;font-stretch:normal;font-style:normal;font-weight:bold;text-anchor:middle;" transform="rotate(-0, 57.631172, 284.49785)" x="57.631172" y="284.49785">Cross-cutting</text>
   </g>
   <g id="text_24">
    <text style="fill:#1b2430;font-family:Arial;font-size:7.2px;font-stretch:normal;font-style:normal;font-weight:normal;" transform="translate(122.871047 280.779753)">Environmental and</text>
    <text style="fill:#1b2430;font-family:Arial;font-size:7.2px;font-stretch:normal;font-style:normal;font-weight:normal;" transform="translate(124.675547 287.714197)">lifecycle concepts</text>
   </g>
   <g id="text_25">
    <text style="fill:#1b2430;font-family:Arial;font-size:7.2px;font-stretch:normal;font-style:normal;font-weight:bold;" transform="translate(352.987547 280.781441)">Sustainability /</text>
    <text style="fill:#1b2430;font-family:Arial;font-size:7.2px;font-stretch:normal;font-style:normal;font-weight:bold;" transform="translate(362.983734 287.800259)">Lifecycle</text>
   </g>
   <g id="text_26">
    <text style="fill:#687385;font-family:Arial;font-size:7px;font-stretch:normal;font-style:normal;font-weight:normal;text-anchor:middle;" transform="rotate(-0, 125.671172, 306.096572)" x="125.671172" y="306.096572">Excluded/reviewed: residual terms and ontology/semantic-web tool concepts</text>
   </g>
   <g id="text_27">
    <text style="fill:#687385;font-family:Arial;font-size:6.75px;font-stretch:normal;font-style:normal;font-weight:normal;" transform="translate(335.748363 302.741813)">Criterion observability filter:</text>
    <text style="fill:#687385;font-family:Arial;font-size:6.75px;font-stretch:normal;font-style:normal;font-weight:normal;" transform="translate(245.227699 309.321956)">capability relevance + literature support + public observability + classification usefulness</text>
   </g>
   <g id="text_28">
    <text style="fill:#687385;font-family:Arial;font-size:7.4px;font-stretch:normal;font-style:normal;font-weight:normal;" transform="translate(35.275172 22.809219)">Sentence-BERT + UMAP + HDBSCAN grouped literature concepts into semantic clusters;</text>
    <text style="fill:#687385;font-family:Arial;font-size:7.4px;font-stretch:normal;font-style:normal;font-weight:normal;" transform="translate(35.275172 30.83105)">clusters were retained, merged or excluded using the four-criterion observability filter.</text>
   </g>
  </g>
 </g>
 <defs>
  <clipPath id="p22533f88a8">
   <rect height="314.496" width="466.56" x="25.555172" y="7.24385"/>
  </clipPath>
 </defs>
</svg>
